<svg width="530" height="290" viewBox="0 0 530 290" fill="none" xmlns="http://www.w3.org/2000/svg">
<g opacity="0.7" clip-path="url(#clip0_1_19)">
<path d="M150.741 83.6254H27.6791V166.554H150.741V83.6254Z" fill="white"/>
<path d="M151.142 166.955H27.2777V83.2241H151.142V166.955ZM28.0804 166.152H150.339V84.0267H28.0804V166.152Z" fill="#EBEBEB"/>
<path d="M39.5711 89.9C39.5711 91.4652 38.3021 92.7342 36.7369 92.7342C35.1717 92.7342 33.9027 91.4652 33.9027 89.9C33.9027 88.3348 35.1717 87.0658 36.7369 87.0658C38.3021 87.0666 39.5711 88.3348 39.5711 89.9Z" fill="#37474F"/>
<path d="M51.1432 89.9001C51.1432 91.4653 49.8742 92.7343 48.309 92.7343C46.7438 92.7343 45.4747 91.4653 45.4747 89.9001C45.4747 88.3349 46.7438 87.0659 48.309 87.0659C49.875 87.0667 51.1432 88.3349 51.1432 89.9001Z" fill="#EBEBEB"/>
<path d="M62.716 89.9001C62.716 91.4653 61.447 92.7343 59.8818 92.7343C58.3166 92.7343 57.0476 91.4653 57.0476 89.9001C57.0476 88.3349 58.3166 87.0659 59.8818 87.0659C61.447 87.0667 62.716 88.3349 62.716 89.9001Z" fill="#256FFF"/>
<path d="M150.741 95.717H27.6797V96.5196H150.741V95.717Z" fill="#EBEBEB"/>
<path d="M521.569 141.482H398.507V224.41H521.569V141.482Z" fill="white"/>
<path d="M521.97 224.812H398.106V141.08H521.97V224.812ZM398.909 224.009H521.168V141.883H398.909V224.009Z" fill="#EBEBEB"/>
<path d="M410.399 147.757C410.399 149.322 409.13 150.591 407.564 150.591C405.999 150.591 404.73 149.322 404.73 147.757C404.73 146.192 405.999 144.923 407.564 144.923C409.13 144.923 410.399 146.192 410.399 147.757Z" fill="#37474F"/>
<path d="M421.971 147.757C421.971 149.322 420.702 150.591 419.136 150.591C417.571 150.591 416.302 149.322 416.302 147.757C416.302 146.192 417.571 144.923 419.136 144.923C420.702 144.923 421.971 146.192 421.971 147.757Z" fill="#EBEBEB"/>
<path d="M433.544 147.757C433.544 149.322 432.274 150.591 430.709 150.591C429.144 150.591 427.875 149.322 427.875 147.757C427.875 146.192 429.144 144.923 430.709 144.923C432.274 144.923 433.544 146.192 433.544 147.757Z" fill="#256FFF"/>
<path d="M521.569 153.574H398.507V154.376H521.569V153.574Z" fill="#EBEBEB"/>
<path d="M114.165 165.011C114.165 172.222 108.331 178.041 101.135 178.041C100.903 178.041 100.686 178.041 100.47 178.025C100.47 178.025 77.6594 178.072 77.2878 178.072C70.0918 178.072 64.2581 172.238 64.2581 165.041C64.2581 157.846 70.0918 152.012 77.2878 152.012H100.253C100.547 151.997 100.84 151.98 101.135 151.98C108.331 151.981 114.165 157.815 114.165 165.011Z" fill="#A6A6A6"/>
<path d="M77.4354 165.44C77.4418 164.935 77.6305 164.496 77.8865 164.082C78.0005 163.898 78.1273 163.723 78.2485 163.543L79.0351 162.755C79.3393 162.536 79.6371 162.306 79.9494 162.1C81.208 161.265 82.6086 160.786 84.0775 160.494C87.4969 159.816 90.917 159.835 94.3348 160.507C95.7844 160.792 97.1658 161.267 98.4091 162.089C98.7326 162.303 99.04 162.539 99.3555 162.767L100.115 163.524C100.304 163.825 100.522 164.113 100.673 164.431C100.815 164.73 100.885 165.062 100.996 165.41C100.876 165.419 100.82 165.427 100.764 165.428C98.605 165.431 96.4458 165.432 94.2866 165.439C94.155 165.44 94.0892 165.397 94.0265 165.285C93.6067 164.538 92.975 164.117 92.1114 164.063C90.1593 163.94 88.2064 163.937 86.2543 164.065C85.3915 164.122 84.7614 164.547 84.3424 165.294C84.2918 165.384 84.2493 165.448 84.1224 165.449C81.9304 165.446 79.7383 165.449 77.5454 165.451C77.5125 165.449 77.4796 165.443 77.4354 165.44Z" fill="white"/>
<path d="M77.4285 169.228C77.4269 168.466 77.4269 167.705 77.4269 166.944C77.4269 166.885 77.4317 166.827 77.4333 166.786C79.6479 166.783 81.8504 166.781 84.0706 166.778C84.0633 166.925 84.0497 167.095 84.0489 167.263C84.0465 167.912 84.0505 168.561 84.0497 169.21C84.0489 169.774 83.7696 170.053 83.2053 170.054C81.5566 170.056 79.9079 170.058 78.2592 170.058C77.7094 170.059 77.4301 169.78 77.4285 169.228Z" fill="white"/>
<path d="M94.3283 169.263C94.338 168.43 94.3693 167.597 94.3909 166.769C96.5172 166.766 98.7205 166.762 100.935 166.76C100.937 166.798 100.944 166.85 100.944 166.901C100.945 167.676 100.948 168.45 100.947 169.225C100.946 169.751 100.663 170.036 100.138 170.037C98.4701 170.04 96.8013 170.042 95.1334 170.04C94.6285 170.041 94.3227 169.756 94.3283 169.263Z" fill="white"/>
<path d="M514.545 144.063C513.825 142.903 513.864 141.449 514.57 140.279C514.762 139.962 514.948 139.637 515.124 139.307C515.303 138.974 515.472 138.638 515.632 138.3C516.214 137.07 517.398 136.236 518.758 136.194L523.412 136.049L522.941 120.889L518.256 121.033C516.896 121.075 515.666 120.313 515.014 119.12C514.662 118.475 514.275 117.847 513.855 117.24C513.073 116.109 512.941 114.653 513.591 113.441L515.786 109.349L502.414 102.178L500.219 106.27C499.568 107.482 498.283 108.178 496.908 108.152C496.17 108.138 495.432 108.163 494.7 108.227C493.345 108.344 492.031 107.739 491.313 106.584L488.842 102.602L475.952 110.598L478.415 114.574C479.12 115.711 479.115 117.144 478.419 118.287C478.216 118.621 478.021 118.963 477.835 119.311C477.648 119.659 477.472 120.01 477.306 120.364C476.736 121.582 475.538 122.382 474.194 122.423L469.535 122.563L470.006 137.725L474.648 137.578C475.986 137.535 477.245 138.237 477.884 139.413C478.267 140.12 478.693 140.805 479.157 141.467C479.923 142.56 479.988 143.997 479.357 145.173L477.163 149.265L490.535 156.436L492.73 152.344C493.38 151.132 494.668 150.436 496.044 150.464C496.784 150.478 497.523 150.454 498.257 150.392C499.614 150.277 500.931 150.883 501.648 152.042L504.108 156.013L516.998 148.018L514.545 144.063ZM492.08 140.939C484.428 138.004 481.629 128.731 486.38 122.053C489.614 117.507 495.665 115.689 500.873 117.689C508.523 120.628 511.315 129.877 506.567 136.557C503.335 141.104 497.288 142.937 492.08 140.939Z" fill="#EBEBEB"/>
<path d="M460.931 99.227C460.101 98.7486 459.645 97.8375 459.694 96.8816C459.707 96.6223 459.714 96.3614 459.714 96.099C459.714 95.8341 459.707 95.5716 459.694 95.3107C459.645 94.358 460.1 93.4502 460.927 92.9734L463.753 91.3432L458.442 82.139L455.618 83.7676C454.789 84.246 453.769 84.1986 452.968 83.6745C452.527 83.3863 452.07 83.1214 451.599 82.8806C450.75 82.448 450.204 81.5892 450.204 80.6364V77.3824H439.572V80.6364C439.572 81.59 439.027 82.448 438.177 82.8806C437.705 83.1206 437.249 83.3863 436.807 83.6745C436.006 84.1978 434.987 84.2452 434.158 83.7676L431.333 82.139L426.023 91.3432L428.86 92.9822C429.685 93.459 430.139 94.3652 430.09 95.3164C430.077 95.5756 430.07 95.8365 430.07 96.0982C430.07 96.3598 430.077 96.6207 430.09 96.8808C430.139 97.8367 429.682 98.7478 428.853 99.2253L426.023 100.854L431.334 110.058L434.15 108.43C434.979 107.951 435.998 107.998 436.799 108.52C437.242 108.809 437.701 109.075 438.176 109.316C439.027 109.748 439.573 110.607 439.573 111.562V114.815H450.203V111.562C450.203 110.607 450.75 109.748 451.6 109.316C452.074 109.075 452.534 108.809 452.977 108.52C453.778 107.998 454.797 107.952 455.626 108.43L458.443 110.058L463.754 100.854L460.931 99.227ZM444.892 104.808C440.084 104.808 436.183 100.906 436.183 96.099C436.183 91.2918 440.084 87.3989 444.892 87.3989C449.699 87.3989 453.592 91.2918 453.592 96.099C453.592 100.906 449.698 104.808 444.892 104.808Z" fill="#EBEBEB"/>
<path d="M75.4634 74.5747L80.7738 83.7789L83.5904 82.1519C84.4187 81.6727 85.4373 81.7192 86.2392 82.2418C86.6823 82.5307 87.1414 82.7964 87.6158 83.0372C88.4658 83.4698 89.0132 84.3287 89.0132 85.2822V88.5355H99.6429V85.2822C99.6429 84.3279 100.19 83.469 101.04 83.0372C101.515 82.7964 101.974 82.5307 102.417 82.2418C103.218 81.7192 104.237 81.6735 105.066 82.1519L107.883 83.7789L113.194 74.5747L110.364 72.9453C109.534 72.4677 109.077 71.5575 109.126 70.6007C109.139 70.3414 109.146 70.0806 109.146 69.8181C109.146 69.5564 109.14 69.2955 109.126 69.0363C109.077 68.0843 109.531 67.1781 110.356 66.7013L113.194 65.0623L107.883 55.8581L105.059 57.4867C104.229 57.9651 103.21 57.9177 102.409 57.3936C101.968 57.1054 101.511 56.8406 101.039 56.6006C100.19 56.1671 99.6437 55.3091 99.6437 54.3563V51.1023H89.014V54.3563C89.014 55.3099 88.4682 56.1679 87.619 56.6006C87.147 56.8406 86.6903 57.1062 86.2496 57.3936C85.4486 57.9169 84.4292 57.9643 83.6 57.4867L80.7754 55.8581L75.465 65.0623L78.2904 66.6925C79.1171 67.1693 79.5714 68.0771 79.5233 69.0299C79.5104 69.2899 79.5032 69.5532 79.5032 69.8181C79.5032 70.0798 79.5096 70.3406 79.5233 70.6007C79.5722 71.5567 79.1163 72.4677 78.2864 72.9461L75.4634 74.5747ZM85.6235 69.8189C85.6235 65.0117 89.5173 61.1188 94.3236 61.1188C99.1308 61.1188 103.033 65.0117 103.033 69.8189C103.033 74.626 99.1308 78.5278 94.3236 78.5278C89.5173 78.5278 85.6235 74.626 85.6235 69.8189Z" fill="#EBEBEB"/>
<path d="M287.464 82.9765C293.761 57.6768 278.355 32.0632 253.056 25.767C227.756 19.4707 202.142 34.8761 195.846 60.1758C189.55 85.4754 204.955 111.089 230.255 117.385C255.554 123.681 281.168 108.276 287.464 82.9765Z" fill="#EBEBEB"/>
<path d="M276.601 80.3374C281.436 61.0346 269.709 41.4666 250.406 36.6309C231.103 31.7953 211.535 43.5232 206.699 62.826C201.864 82.1288 213.592 101.697 232.894 106.532C252.197 111.368 271.765 99.6402 276.601 80.3374Z" fill="white"/>
<path d="M266.625 77.8598C270.1 64.07 261.739 50.0737 247.949 46.5982C234.159 43.1227 220.163 51.484 216.687 65.2738C213.212 79.0635 221.573 93.0598 235.363 96.5353C249.153 100.011 263.149 91.6495 266.625 77.8598Z" fill="#EBEBEB"/>
<path d="M255.457 75.0696C257.391 67.4491 252.781 59.7035 245.161 57.7695C237.54 55.8354 229.795 60.4453 227.861 68.0659C225.927 75.6865 230.536 83.432 238.157 85.366C245.778 87.3001 253.523 82.6902 255.457 75.0696Z" fill="white"/>
<path d="M247.896 73.1662C248.774 69.7225 246.694 66.2188 243.25 65.3406C239.807 64.4625 236.303 66.5423 235.425 69.9861C234.547 73.4298 236.626 76.9335 240.07 77.8116C243.514 78.6898 247.018 76.61 247.896 73.1662Z" fill="#EBEBEB"/>
<path d="M298.799 13.1323L244.727 67.2043L246.025 68.5017L300.097 14.4298L298.799 13.1323Z" fill="#C7C7C7"/>
<path d="M248.724 69.6832L241.655 71.5767L243.549 64.5084L248.724 69.6832Z" fill="#A6A6A6"/>
<path d="M308.498 10.2607L298.359 20.3992L290.406 22.8248L292.832 14.8728L302.97 4.73352L300.545 12.6863L308.498 10.2607Z" fill="#A6A6A6"/>
<path d="M0.36145 264.86L66.5213 264.665L132.68 264.595L265 264.46L397.319 264.594L463.478 264.664L529.638 264.86L463.478 265.057L397.319 265.127L265 265.261L132.68 265.126L66.5213 265.055L0.36145 264.86Z" fill="#263238"/>
<path d="M167.783 269.593H57.165L48.6006 194.464H159.22L167.783 269.593Z" fill="#37474F"/>
<path d="M161.755 264.554H62.043L54.6279 199.503H154.34L161.755 264.554Z" fill="white"/>
<path d="M230.306 264.554H116.772V269.598H230.306V264.554Z" fill="#37474F"/>
<path d="M230.306 264.554H173.163V269.598H230.306V264.554Z" fill="#263238"/>
<path d="M126.531 199.506L61.989 264.048L60.0626 247.168L107.717 199.506H126.531Z" fill="#EBEBEB"/>
<path d="M160.067 249.737L145.25 264.554H126.436L158.141 232.849L160.067 249.737Z" fill="#EBEBEB"/>
<path d="M66.982 199.506L55.8972 210.591L55.239 204.835L60.5687 199.506H66.982Z" fill="#EBEBEB"/>
<path d="M156.904 221.997L114.347 264.554H107.926L156.246 216.233L156.904 221.997Z" fill="#EBEBEB"/>
<path d="M75.3454 199.506L56.7476 218.104L56.587 216.659L73.74 199.506H75.3454Z" fill="#EBEBEB"/>
<path d="M135.754 199.506L70.7058 264.554H69.1005L134.149 199.506H135.754Z" fill="#EBEBEB"/>
<path d="M155.821 212.485L103.752 264.554H102.147L155.661 211.04L155.821 212.485Z" fill="#EBEBEB"/>
<path d="M361.562 269.593H472.179L480.743 194.464H370.124L361.562 269.593Z" fill="#37474F"/>
<path d="M367.59 264.554H467.302L474.717 199.503H375.005L367.59 264.554Z" fill="white"/>
<path d="M412.573 264.554H299.039V269.598H412.573V264.554Z" fill="#37474F"/>
<path d="M356.182 264.554H299.039V269.598H356.182V264.554Z" fill="#263238"/>
<path d="M471.848 224.701L469.424 245.94L450.81 264.554H431.995L471.848 224.701Z" fill="#EBEBEB"/>
<path d="M436.49 199.506L371.45 264.554H367.589L369.516 247.674L417.684 199.506H436.49Z" fill="#EBEBEB"/>
<path d="M394.117 199.506L372.549 221.073L373.376 213.825L387.696 199.506H394.117Z" fill="#EBEBEB"/>
<path d="M465.065 199.506L400.017 264.554H393.596L458.644 199.506H465.065Z" fill="#EBEBEB"/>
<path d="M472.771 216.595L472.57 218.409L426.425 264.554H424.819L472.771 216.595Z" fill="#EBEBEB"/>
<path d="M471.799 199.506L406.759 264.554H405.154L470.202 199.506H471.799Z" fill="#EBEBEB"/>
<path d="M411.214 199.506L370.342 240.378L370.551 238.564L409.609 199.506H411.214Z" fill="#EBEBEB"/>
<path d="M159.944 156.451C173.667 184.15 193.98 211.792 199.425 217.018C214.048 231.054 253.089 241.142 264.597 241.462C269.564 241.6 276.436 208.592 272.774 204.742C269.113 200.893 220.902 190.414 218.32 188.435C216.525 187.059 193.531 165.204 178.288 152.229C159.343 136.107 156.34 149.178 159.944 156.451Z" fill="#F7A9A0"/>
<path d="M262.125 200.167L249.681 239.457C249.681 239.457 208.885 228.68 197.969 218.221C187.054 207.761 164.443 170.144 160.026 157.755C155.609 145.366 158.487 135.572 178.45 151.651C198.413 167.731 215.411 184.18 218.956 186.828C222.501 189.474 262.125 200.167 262.125 200.167Z" fill="#455A64"/>
<path d="M249.49 201.738C249.656 202.833 250.679 203.587 251.775 203.42C252.871 203.254 253.624 202.231 253.457 201.135C253.291 200.039 252.268 199.286 251.172 199.453C250.077 199.619 249.323 200.642 249.49 201.738Z" fill="#263238"/>
<path d="M239.496 198.859C239.662 199.954 240.685 200.708 241.781 200.541C242.876 200.375 243.63 199.351 243.463 198.256C243.297 197.16 242.274 196.406 241.178 196.573C240.082 196.74 239.329 197.763 239.496 198.859Z" fill="#263238"/>
<path d="M219.586 229.718C210.652 226.25 202.136 222.213 197.97 218.224C187.054 207.757 164.443 170.144 160.028 157.751C157.203 149.829 157.355 142.974 163.054 143.255L219.586 229.718Z" fill="#263238"/>
<path d="M94.884 264.541L197.869 264.561C198.283 260.797 177.092 155.861 167.005 142.707C164.846 139.895 157.729 139.113 151.677 139.866C150.001 140.065 148.411 140.392 147.018 140.818C146.989 140.832 146.933 140.846 146.861 140.86C145.455 141.315 144.262 141.883 143.438 142.536C126.605 155.975 94.0741 263.618 94.884 264.541Z" fill="#455A64"/>
<path d="M158.627 166.429L163.006 157.903L168.654 164.07L167.273 170.206L161.694 170.923L158.627 166.429Z" fill="#263238"/>
<path d="M161.694 170.923L159.025 233.635L170.779 254.373L176.881 231.032L167.273 170.206L161.694 170.923Z" fill="#263238"/>
<path d="M161.534 156.765C159.911 156.702 149.156 148.287 145.848 141.733C145.624 141.283 146.456 136.654 147.2 130.982C147.639 127.538 148.046 123.694 148.164 120.158C148.185 119.432 150.612 120.848 150.612 120.848L155.149 122.107L170.157 126.286C170.157 126.286 167.729 133.624 167.561 139.789C167.552 140.304 167.587 140.785 167.664 141.245C167.67 141.312 167.686 141.393 167.688 141.486C168.046 144.257 164.186 156.87 161.534 156.765Z" fill="#F7A9A0"/>
<path d="M167.664 141.245C167.67 141.312 167.686 141.393 167.688 141.487C166.991 141.562 166.234 141.577 165.405 141.531C150.487 140.7 149.256 121.654 149.256 121.654L155.149 122.108L170.156 126.287C170.156 126.287 167.729 133.625 167.56 139.79C167.552 140.305 167.587 140.786 167.664 141.245Z" fill="#263238"/>
<path d="M144.679 94.1869C142.429 102.097 147.015 124.738 152.705 129.698C160.955 136.886 174.245 137.336 180.298 127.469C186.167 117.904 179.668 88.504 173.331 84.0195C163.999 77.4144 148.002 82.5017 144.679 94.1869Z" fill="#F7A9A0"/>
<path d="M167.101 107.364C167.078 107.309 166.996 107.46 167.01 107.522C167.36 109.039 167.505 110.836 166.224 111.614C166.185 111.638 166.204 111.715 166.254 111.697C167.892 111.128 167.676 108.745 167.101 107.364Z" fill="#263238"/>
<path d="M165.424 106.04C162.932 106.338 163.711 111.3 166.021 111.023C168.292 110.751 167.512 105.789 165.424 106.04Z" fill="#263238"/>
<path d="M176.04 106.216C176.042 106.155 176.171 106.27 176.179 106.334C176.372 107.878 176.853 109.615 178.323 109.907C178.369 109.916 178.377 109.994 178.324 109.995C176.59 110.023 175.975 107.711 176.04 106.216Z" fill="#263238"/>
<path d="M177.159 104.396C179.602 103.82 180.575 108.747 178.312 109.281C176.085 109.807 175.112 104.878 177.159 104.396Z" fill="#263238"/>
<path d="M163.109 104.079C163.758 103.803 164.311 103.439 164.925 103.1C165.617 102.717 166.208 102.482 166.585 101.748C166.788 101.354 166.58 100.737 166.217 100.505C165.368 99.9628 164.404 100.221 163.552 100.648C162.627 101.112 162.033 101.706 161.61 102.648C161.199 103.561 162.252 104.443 163.109 104.079Z" fill="#263238"/>
<path d="M178.685 101.595C177.979 101.591 177.329 101.47 176.632 101.394C175.846 101.308 175.21 101.321 174.578 100.79C174.239 100.505 174.192 99.8561 174.438 99.4997C175.01 98.6721 176 98.5381 176.951 98.6031C177.983 98.6729 178.761 98.9916 179.516 99.6971C180.247 100.38 179.615 101.601 178.685 101.595Z" fill="#263238"/>
<path d="M167.924 121.854C168.348 122.156 168.794 122.593 169.359 122.553C169.901 122.514 170.49 122.174 170.95 121.906C170.996 121.881 171.053 121.924 171.03 121.974C170.723 122.627 169.942 123.129 169.21 123.116C168.495 123.104 168.057 122.556 167.788 121.946C167.749 121.861 167.862 121.811 167.924 121.854Z" fill="#263238"/>
<path d="M173.779 118.077C173.779 118.077 172.952 119.658 171.596 120.395C171.096 120.668 170.538 120.833 169.916 120.768C168.638 120.639 168.43 119.517 168.504 118.517C168.562 117.696 168.822 116.955 168.822 116.955C168.822 116.955 170.877 118.351 173.779 118.077Z" fill="white"/>
<path d="M168.816 116.998C169.886 118.197 171.266 118.727 172.675 118.778C173.305 118.804 173.951 118.725 174.571 118.567C174.695 118.546 174.816 118.512 174.924 118.469C175.034 118.438 175.134 118.409 175.253 118.365C175.428 118.31 175.503 118.147 175.507 117.972L175.505 117.961C175.496 117.905 175.488 117.86 175.466 117.806C175.466 117.806 175.466 117.806 175.464 117.795L175.44 117.661C175.287 116.472 174.889 114.691 174.889 114.691C175.355 114.84 177.716 115.485 177.583 114.872C176.473 109.801 175.238 104.163 173.063 99.3522C172.999 99.1901 172.747 99.2695 172.788 99.4357C173.662 104.351 175.395 109.079 176.352 114.003C175.606 113.846 174.381 113.531 173.764 113.641C173.603 113.716 174.594 117.071 174.62 117.61C174.62 117.61 174.624 117.633 174.619 117.668C172.671 118.235 171.078 117.87 168.937 116.838C168.81 116.768 168.705 116.89 168.816 116.998Z" fill="#263238"/>
<path d="M147.344 111.844C152.749 111.036 152.366 101.066 152.366 101.066C152.366 101.066 161.429 98.1891 161.759 91.0021C161.759 91.0021 171.392 95.3421 177.955 91.8168C184.518 88.2915 181.919 80.6677 180.906 79.1033C179.894 77.5389 176.507 81.2135 176.507 81.2135C176.507 81.2135 175.42 76.843 174.169 76.5645C172.917 76.286 172.022 79.1579 172.022 79.1579C172.022 79.1579 162.659 77.4659 154.592 78.8794C146.525 80.2929 143.706 89.0436 143.706 89.0436C143.706 89.0436 139.509 90.5951 138.548 93.8339C137.587 97.0718 143.899 112.359 147.344 111.844Z" fill="#263238"/>
<path d="M150.19 101.453C157.51 101.357 161.578 95.8903 161.616 88.8582C161.617 88.7715 161.742 88.7619 161.752 88.8494C162.482 95.2875 157.54 103.304 150.167 101.78C149.989 101.743 149.999 101.455 150.19 101.453Z" fill="#263238"/>
<path d="M143.881 88.883C143.962 88.8509 144.021 88.9713 143.949 89.0178C142.076 90.2427 139.876 91.2781 138.729 93.3161C137.346 95.7771 138.136 98.6266 139.141 101.049C140.697 104.801 143.444 109.57 147.262 111.353C147.482 111.456 147.316 111.777 147.096 111.687C142.557 109.833 139.169 103.62 137.922 99.117C136.526 94.0746 139.295 90.6826 143.881 88.883Z" fill="#263238"/>
<path d="M169.918 91.8576C173.359 93.3016 178.067 92.698 180.849 90.0789C184.238 86.8875 182.802 82.651 180.637 79.2614C180.53 79.0944 180.76 78.8649 180.908 79.0214C183.61 81.8877 184.501 86.7085 181.811 89.9039C179.032 93.2069 173.474 93.9229 169.68 92.336C169.362 92.2036 169.602 91.7244 169.918 91.8576Z" fill="#263238"/>
<path d="M165.823 116.372C162.854 116.484 160.063 114.581 159.184 111.603C158.144 108.08 160.163 104.37 163.684 103.33C167.207 102.29 170.916 104.309 171.958 107.83C172.997 111.351 170.978 115.063 167.457 116.103C166.913 116.264 166.365 116.351 165.823 116.372ZM165.352 103.951C164.884 103.969 164.408 104.045 163.937 104.184C160.886 105.085 159.138 108.3 160.038 111.351C160.94 114.401 164.156 116.154 167.204 115.25C170.255 114.348 172.003 111.134 171.104 108.083C170.342 105.503 167.925 103.853 165.352 103.951Z" fill="#455A64"/>
<path d="M180.91 113.937C178.364 114.033 175.955 111.512 175.419 108.079C175.149 106.347 175.388 104.636 176.092 103.263C176.819 101.841 177.955 100.944 179.291 100.736C180.631 100.524 181.982 101.036 183.109 102.168C184.198 103.263 184.946 104.819 185.216 106.55C185.781 110.178 184.045 113.473 181.344 113.895C181.199 113.917 181.055 113.931 180.91 113.937ZM179.765 101.583C179.653 101.588 179.541 101.598 179.429 101.616C178.383 101.779 177.48 102.507 176.884 103.668C176.266 104.876 176.058 106.394 176.299 107.941C176.79 111.084 178.984 113.363 181.208 113.014C183.423 112.669 184.827 109.83 184.337 106.688C184.096 105.14 183.435 103.757 182.478 102.795C181.656 101.97 180.705 101.547 179.765 101.583Z" fill="#455A64"/>
<path d="M171.855 108.626L171.184 108.04C172.051 107.046 174.183 105.56 176.058 107.029L175.509 107.729C173.832 106.411 171.936 108.536 171.855 108.626Z" fill="#455A64"/>
<path d="M142.803 114.893L141.958 114.611C142.091 114.217 143.299 110.746 145.214 110.12C147.005 109.54 158.968 108.806 159.476 108.775L159.529 109.664C156.1 109.871 146.872 110.515 145.491 110.966C144.226 111.379 143.122 113.941 142.803 114.893Z" fill="#455A64"/>
<path d="M150.784 112.851C150.784 112.851 145.362 105.709 142.102 107.67C138.842 109.632 143.12 120.124 147.088 121.427C151.057 122.73 152.335 119.08 152.335 119.08L150.784 112.851Z" fill="#F7A9A0"/>
<path d="M143.403 110.647C143.34 110.644 143.331 110.732 143.386 110.753C146.172 111.757 147.716 114.243 148.831 116.841C147.975 115.857 146.842 115.345 145.521 116.369C145.452 116.423 145.525 116.532 145.601 116.512C146.716 116.228 147.534 116.39 148.328 117.261C148.891 117.877 149.29 118.668 149.703 119.388C149.841 119.628 150.279 119.48 150.174 119.201C150.166 119.181 150.157 119.16 150.149 119.139C150.081 115.64 147.172 110.853 143.403 110.647Z" fill="#263238"/>
<path d="M167.741 141.779L162.379 154.935L146.131 138.32L141.505 143.63C141.505 143.63 157.377 170.006 157.48 168.816L162.905 157.533L170.685 165.407L170.094 145.678L167.741 141.779Z" fill="#455A64"/>
<path d="M170.943 155.639C170.736 152.385 170.619 149.101 170.262 145.86C170.25 145.745 170.07 145.693 170.041 145.829C169.382 148.97 170.238 161.41 170.218 164.392C170.207 164.381 170.194 164.369 170.184 164.358C169.859 164.017 162.973 157.427 162.904 157.532C161.729 159.323 157.748 167.539 157.476 168.287C154.966 164.098 145.344 148.866 142.371 144.903C142.286 144.789 142.11 144.883 142.176 145.016C144.392 149.439 157.124 169.95 157.32 169.893C157.453 169.996 162.401 159.876 162.993 157.964C164.158 159.399 171.108 166.833 171.132 166.349C171.299 163.085 171.149 158.897 170.943 155.639Z" fill="#263238"/>
<path d="M201.404 279.019L121.208 286.959L120.953 224.786L201.148 216.847L201.404 279.019Z" fill="#256FFF"/>
<path d="M147.13 215.317L120.884 217.916L120.953 224.786L149.041 222.005L147.13 215.317Z" fill="#256FFF"/>
<g opacity="0.1">
<path d="M201.404 279.019L121.208 286.959L120.953 224.786L201.148 216.847L201.404 279.019Z" fill="black"/>
<path d="M147.13 215.317L120.884 217.916L120.953 224.786L149.041 222.005L147.13 215.317Z" fill="black"/>
</g>
<path d="M201.351 279.025L124.006 286.682L112.942 224.341L195.384 217.418L201.351 279.025Z" fill="#EBEBEB"/>
<path d="M201.351 279.025L122.036 286.877L110.181 226.958L193.551 218.704L201.351 279.025Z" fill="white"/>
<path d="M201.206 279.039L120.838 286.995L109.111 228.369L189.479 220.413L201.206 279.039Z" fill="#256FFF"/>
<path d="M132.654 151.909C105.243 176.779 85.4626 219.653 86.0694 231.203C86.8704 246.464 114.518 272.555 132.52 280.109C137.076 282.021 154.686 244.746 148.023 242.805C140.993 240.755 124.734 226.014 123.942 225.346C122.251 223.919 135.352 191.306 140.835 171.509C147.026 149.156 144.191 141.442 132.654 151.909Z" fill="#F7A9A0"/>
<path d="M122.341 274.406C139.772 286.996 163.479 289.723 167.57 289.308C171.057 288.965 172.85 288.755 172.85 288.755C179.116 288.262 181.367 285.291 181.367 285.291C181.367 285.291 188.78 286.853 190.468 282.53C192.376 277.688 181.592 276.441 176.081 272.129C163.454 262.248 148.269 244.673 144.911 241.463L122.341 274.406Z" fill="#F7A9A0"/>
<path d="M155.572 271.075C159.345 273.908 162.979 276.79 167.117 279.098C171.656 281.63 176.45 283.305 181.288 285.132C181.438 285.189 181.375 285.405 181.217 285.372C171.937 283.451 162.032 278.048 155.312 271.392C155.15 271.231 155.382 270.932 155.572 271.075Z" fill="#263238"/>
<path d="M148.501 277.829C152.326 280.382 159.078 284.827 172.892 288.607C172.937 288.619 172.93 288.7 172.879 288.693C163.584 287.431 155.534 284.016 148.258 278.222C148.031 278.043 148.247 277.66 148.501 277.829Z" fill="#263238"/>
<path d="M161.62 259.262C160.486 257.323 161.495 256.715 165.21 258.177C168.972 259.646 182.389 268.575 185.109 263.615C187.848 258.642 168.652 246.32 162.28 244.359C155.911 242.384 144.912 241.463 144.912 241.463C148.163 244.612 155.321 253.002 161.62 259.262Z" fill="#F7A9A0"/>
<path d="M122.972 277.213L144.809 240.552C144.809 240.552 124.372 226.222 124.274 224.786C124.176 223.351 138.636 183.854 143.005 164.414C147.374 144.974 145.208 135.699 126.077 157.374C106.944 179.048 82.4037 215.509 83.7056 231.135C85.0075 246.762 122.972 277.213 122.972 277.213Z" fill="#455A64"/>
<path d="M139.374 182.999C138.58 184.391 137.732 185.752 137.012 187.185C136.778 187.65 136.545 188.116 136.31 188.583C136.489 188.022 136.672 187.462 136.851 186.901C137.973 183.378 139.058 179.837 140.003 176.263C140.026 176.176 139.889 176.117 139.852 176.203C137.327 182.27 135.245 188.527 133.174 194.76C131.088 201.039 129.127 207.36 127.262 213.707C126.22 217.252 125.143 220.812 124.327 224.418C124.308 224.499 124.42 224.521 124.449 224.448C125.649 221.36 126.672 218.191 127.716 215.047C128.761 211.903 129.814 208.763 130.836 205.611C132.466 200.589 134.077 195.562 135.684 190.532C136.413 189.629 136.908 188.548 137.436 187.509C138.177 186.05 138.776 184.529 139.435 183.032C139.453 182.993 139.397 182.961 139.374 182.999Z" fill="#263238"/>
<path d="M119.093 268.009C118.75 269.063 119.325 270.196 120.379 270.539C121.433 270.883 122.566 270.307 122.909 269.253C123.253 268.199 122.677 267.067 121.623 266.723C120.57 266.38 119.437 266.955 119.093 268.009Z" fill="#263238"/>
<path d="M111.46 260.946C111.117 262 111.692 263.133 112.746 263.476C113.8 263.82 114.932 263.245 115.276 262.191C115.62 261.137 115.044 260.004 113.99 259.661C112.936 259.317 111.804 259.893 111.46 260.946Z" fill="#263238"/>
<path d="M97.7323 253.715C100.265 255.872 102.637 258.179 104.992 260.504C106.159 261.676 107.327 262.849 108.473 264.042C109.628 265.227 110.752 266.442 111.885 267.659C109.206 265.681 106.786 263.398 104.427 261.073C102.087 258.725 99.812 256.313 97.7323 253.715Z" fill="#263238"/>
<path d="M377.331 88.2366C379.049 82.7175 386.562 70.5627 398.69 74.2301C415.998 79.4634 415.335 113.711 423.113 125.138C437.206 145.846 435.928 164.902 422.598 166.705C407.659 168.726 394.92 151.697 398.668 117.81C401.013 96.6205 395.917 86.6473 391.624 86.8793C387.332 87.1113 384.516 92.2435 384.516 92.2435L377.331 88.2366Z" fill="#263238"/>
<path d="M378.122 86.177C379.233 83.6486 380.659 81.2518 382.364 79.0397C384.08 76.8444 386.179 74.8714 388.711 73.5221C391.218 72.1439 394.213 71.5524 397.09 71.9304C399.931 72.2948 402.704 73.319 405.072 74.9782C407.432 76.6501 409.307 78.9056 410.726 81.3465C412.134 83.8051 413.179 86.4242 413.985 89.0947C415.529 94.4597 416.241 99.978 416.554 105.484C415.64 100.044 414.525 94.6411 412.825 89.4639C411.904 86.905 410.866 84.3902 409.46 82.1058C408.078 79.8166 406.333 77.7514 404.172 76.2504C402.04 74.7205 399.5 73.7742 396.892 73.3897C394.305 72.9731 391.643 73.4563 389.26 74.6017C386.874 75.7559 384.752 77.5034 382.943 79.5293C382.009 80.5214 381.174 81.6058 380.362 82.7119C379.581 83.838 378.832 84.9938 378.122 86.177Z" fill="#263238"/>
<path d="M399.672 106.106C399.536 109.491 399.025 112.846 398.641 116.202C398.208 119.552 397.793 122.9 397.474 126.249C397.174 129.599 396.938 132.951 396.963 136.296C396.973 139.637 397.185 142.979 397.841 146.225C398.468 149.467 399.546 152.631 401.307 155.38C403.086 158.088 405.461 160.534 408.093 162.482C410.751 164.426 413.835 165.806 417.111 166.343C418.745 166.621 420.422 166.7 422.087 166.546C422.919 166.471 423.748 166.339 424.564 166.143C425.378 165.948 426.198 165.721 426.933 165.302C425.51 166.237 423.812 166.667 422.139 166.955C420.452 167.23 418.723 167.27 417.008 167.099C415.295 166.912 413.607 166.49 411.984 165.887C410.366 165.272 408.832 164.443 407.396 163.477C405.959 162.511 404.627 161.393 403.406 160.172L402.509 159.238L401.654 158.267C401.087 157.615 400.546 156.912 400.068 156.182C398.134 153.252 396.99 149.899 396.31 146.527C395.023 139.729 395.417 132.831 396.267 126.115C396.694 122.747 397.275 119.409 397.888 116.084C398.528 112.762 399.186 109.453 399.672 106.106Z" fill="#263238"/>
<path d="M376.312 88.2367C376.267 86.6506 377.411 84.6079 378.438 84.3245C379.466 84.0412 387.079 87.3112 387.732 89.2641C388.386 91.217 385 92.9411 385 92.9411L376.312 88.2367Z" fill="#455A64"/>
<path d="M382.187 158.325C377.664 168.166 344.014 214.428 327.309 215.691C309.826 217.012 267.89 188.441 263.871 186.063C252.849 179.541 283.578 149.458 288.893 154.8C297.774 163.729 319 180.556 324.19 179.419C335.1 177.029 357.827 157.941 373.948 148.009C383.676 142.017 387.191 147.437 382.187 158.325Z" fill="#E99A90"/>
<path d="M266.512 187.597C264.612 186.336 249.318 177.837 243.58 169.644C240.541 165.305 233.533 152.434 235.941 150.256C238.14 148.267 240.928 151.322 240.928 151.322C240.928 151.322 237.887 145.538 240.976 142.809C244.064 140.079 248.501 145.477 248.501 145.477C248.501 145.477 245.812 139.31 249.087 136.808C252.362 134.306 255.915 140.481 255.915 140.481C255.915 140.481 253.193 134.956 256.759 134.031C261.048 132.916 264.915 143.669 269.074 147.804C270.019 148.743 289.572 165.473 289.572 165.473L266.512 187.597Z" fill="#E99A90"/>
<path d="M256.152 140.475C259.015 148.375 261.634 151.336 268.169 156.408C268.296 156.507 268.177 156.72 268.034 156.628C261.184 152.244 257.363 149.004 255.763 140.593C255.684 140.182 256.016 140.1 256.152 140.475Z" fill="#263238"/>
<path d="M248.741 145.44C252.431 153.385 255.244 156.622 261.697 162.438C261.789 162.52 261.659 162.683 261.56 162.608C254.752 157.432 251.014 154.112 248.37 145.689C248.249 145.308 248.572 145.076 248.741 145.44Z" fill="#263238"/>
<path d="M241.247 151.592C245.375 159.027 248.305 162.709 255.295 167.551C255.46 167.665 255.309 167.916 255.132 167.818C247.525 163.574 243.834 159.007 241.034 151.742C240.843 151.246 240.988 151.125 241.247 151.592Z" fill="#263238"/>
<path d="M296.192 163.057C296.192 163.057 291.853 153.464 289.017 149.67C286.181 145.876 270.409 135.628 268.002 138.908C264.894 143.145 272.834 150.854 277.216 154.122C277.216 154.122 270.019 163.914 274.519 170.68C279.02 177.447 296.192 163.057 296.192 163.057Z" fill="#E99A90"/>
<path d="M267.53 140.353C267.482 146.26 273.511 150.178 277.525 153.667C277.83 153.932 277.724 154.271 277.476 154.464C274.733 158.77 272.118 165.642 274.193 170.615C274.254 170.76 274.055 170.867 273.974 170.728C271.024 165.697 273.042 158.736 276.349 154.212C272.176 150.699 266.302 146.504 267.472 140.349C267.479 140.315 267.53 140.315 267.53 140.353Z" fill="#263238"/>
<path d="M381.728 161.122C376.49 171.566 345.941 216.114 329.44 216.822C312.939 217.531 278.37 203.444 278.37 203.444L303.981 164.444C303.981 164.444 321.709 177.236 324.49 177.338C327.271 177.44 364.504 152.844 373.201 147.44C381.899 142.035 390.248 144.137 381.728 161.122Z" fill="#256FFF"/>
<path d="M301.75 203.732C301.599 202.519 301.691 201.341 301.841 200.17C302.015 199.003 302.248 197.844 302.726 196.719C302.879 197.931 302.786 199.11 302.635 200.28C302.459 201.448 302.226 202.607 301.75 203.732Z" fill="white"/>
<path d="M352.732 195.922C352.581 194.709 352.673 193.531 352.823 192.36C352.997 191.193 353.23 190.034 353.708 188.909C353.86 190.121 353.768 191.3 353.617 192.471C353.441 193.638 353.209 194.797 352.732 195.922Z" fill="white"/>
<path d="M355.557 166.249C354.345 166.4 353.166 166.308 351.996 166.159C350.829 165.984 349.67 165.751 348.544 165.273C349.757 165.121 350.935 165.213 352.106 165.364C353.273 165.54 354.432 165.773 355.557 166.249Z" fill="white"/>
<path d="M314.47 179.709C313.258 179.86 312.079 179.768 310.909 179.619C309.741 179.444 308.582 179.211 307.457 178.733C308.67 178.581 309.848 178.673 311.018 178.824C312.186 179 313.345 179.233 314.47 179.709Z" fill="white"/>
<path d="M320.463 215.944C320.415 216.008 320.367 216.072 320.311 216.129C320.247 216.121 320.174 216.113 320.102 216.096C320.222 216.048 320.343 215.992 320.463 215.944Z" fill="white"/>
<path d="M291.494 189.731C292.244 188.767 293.143 187.999 294.077 187.277C295.026 186.575 296.01 185.92 297.143 185.463C296.393 186.428 295.495 187.197 294.56 187.917C293.61 188.617 292.626 189.272 291.494 189.731Z" fill="white"/>
<path d="M334.216 180.867C334.967 179.903 335.866 179.135 336.799 178.412C337.748 177.71 338.732 177.056 339.865 176.598C339.116 177.564 338.217 178.332 337.282 179.052C336.333 179.753 335.349 180.408 334.216 180.867Z" fill="white"/>
<path d="M320.039 193.098C321.003 193.848 321.771 194.747 322.493 195.681C323.195 196.629 323.85 197.614 324.307 198.747C323.342 197.997 322.573 197.098 321.853 196.164C321.152 195.214 320.497 194.23 320.039 193.098Z" fill="white"/>
<path d="M360.602 174.805C361.566 175.555 362.334 176.454 363.056 177.388C363.758 178.337 364.413 179.321 364.87 180.454C363.905 179.704 363.136 178.805 362.416 177.871C361.715 176.922 361.06 175.937 360.602 174.805Z" fill="white"/>
<path d="M309.52 170.781C306.294 176.611 303.188 182.502 299.706 188.186C296.271 193.795 292.736 199.427 288.728 204.645C288.652 204.744 288.482 204.639 288.542 204.527C291.625 198.708 295.145 193.092 298.572 187.47C302.027 181.803 305.711 176.284 309.156 170.612C309.289 170.397 309.647 170.553 309.52 170.781Z" fill="#263238"/>
<path d="M381.732 161.125C376.49 171.568 345.941 216.116 329.438 216.822C325.433 216.991 320.36 216.293 314.982 215.129C327.808 201.411 363.68 162.723 380.287 144.815C385.328 144.51 387.776 149.069 381.732 161.125Z" fill="#263238"/>
<path d="M351.284 264.541H448.147C448.147 264.541 410.484 169.191 390.428 150.008C384.975 144.792 371.509 145.179 364.909 153.975C359.499 161.185 344.484 189.893 343.798 200.217C343.144 210.565 351.214 220.735 351.214 220.735L351.284 264.541Z" fill="#256FFF"/>
<path d="M363.663 228.813C363.512 227.601 363.604 226.422 363.754 225.252C363.928 224.085 364.161 222.926 364.639 221.8C364.791 223.013 364.699 224.191 364.548 225.362C364.372 226.53 364.139 227.689 363.663 228.813Z" fill="white"/>
<path d="M430.222 246.762C430.071 245.549 430.163 244.371 430.312 243.201C430.486 242.034 430.72 240.875 431.198 239.749C431.35 240.962 431.258 242.14 431.107 243.311C430.93 244.478 430.697 245.637 430.222 246.762Z" fill="white"/>
<path d="M388.433 262.445C388.283 261.233 388.375 260.054 388.524 258.883C388.698 257.716 388.932 256.557 389.409 255.432C389.562 256.645 389.47 257.823 389.319 258.993C389.143 260.161 388.91 261.32 388.433 262.445Z" fill="white"/>
<path d="M378.805 190.47C378.654 189.258 378.747 188.079 378.896 186.908C379.07 185.741 379.304 184.582 379.781 183.457C379.934 184.67 379.842 185.848 379.691 187.019C379.514 188.186 379.281 189.345 378.805 190.47Z" fill="white"/>
<path d="M404.546 219.448C404.395 218.236 404.488 217.056 404.637 215.886C404.811 214.719 405.045 213.56 405.522 212.435C405.675 213.648 405.583 214.827 405.432 215.997C405.256 217.164 405.023 218.323 404.546 219.448Z" fill="white"/>
<path d="M352.732 195.922C352.581 194.709 352.673 193.531 352.823 192.36C352.997 191.193 353.23 190.034 353.708 188.909C353.861 190.121 353.768 191.3 353.617 192.471C353.442 193.638 353.209 194.797 352.732 195.922Z" fill="white"/>
<path d="M386.797 224.422C385.584 224.572 384.406 224.48 383.236 224.331C382.068 224.157 380.909 223.923 379.784 223.446C380.997 223.293 382.175 223.385 383.346 223.536C384.513 223.712 385.672 223.946 386.797 224.422Z" fill="white"/>
<path d="M416.01 196.719C414.798 196.87 413.619 196.778 412.449 196.628C411.282 196.454 410.123 196.221 408.998 195.743C410.211 195.591 411.389 195.683 412.56 195.834C413.726 196.01 414.885 196.242 416.01 196.719Z" fill="white"/>
<path d="M363.883 256.998C362.671 257.149 361.492 257.056 360.322 256.907C359.155 256.733 357.996 256.499 356.871 256.022C358.084 255.869 359.262 255.962 360.433 256.112C361.599 256.288 362.758 256.521 363.883 256.998Z" fill="white"/>
<path d="M418.226 233.005C417.014 233.155 415.835 233.063 414.665 232.914C413.498 232.74 412.339 232.506 411.214 232.029C412.427 231.876 413.606 231.968 414.776 232.119C415.942 232.295 417.101 232.528 418.226 233.005Z" fill="white"/>
<path d="M372.374 246.167C373.124 245.203 374.023 244.434 374.957 243.712C375.905 243.01 376.889 242.356 378.024 241.898C377.274 242.864 376.375 243.632 375.441 244.353C374.491 245.052 373.506 245.707 372.374 246.167Z" fill="white"/>
<path d="M408.998 253.165C409.748 252.201 410.647 251.433 411.581 250.711C412.529 250.008 413.513 249.354 414.647 248.896C413.897 249.862 412.998 250.63 412.064 251.351C411.115 252.051 410.13 252.706 408.998 253.165Z" fill="white"/>
<path d="M418.698 218.901C419.448 217.937 420.347 217.169 421.281 216.446C422.23 215.744 423.214 215.09 424.347 214.632C423.597 215.598 422.698 216.366 421.764 217.087C420.814 217.787 419.83 218.442 418.698 218.901Z" fill="white"/>
<path d="M360.866 206.584C361.616 205.62 362.515 204.852 363.449 204.129C364.397 203.427 365.382 202.773 366.515 202.315C365.765 203.281 364.866 204.049 363.932 204.77C362.982 205.471 361.997 206.126 360.866 206.584Z" fill="white"/>
<path d="M398.318 183.001C399.068 182.037 399.967 181.269 400.9 180.546C401.849 179.844 402.833 179.19 403.967 178.732C403.217 179.698 402.318 180.466 401.384 181.187C400.434 181.888 399.45 182.543 398.318 183.001Z" fill="white"/>
<path d="M353.783 234.79C353.045 235.738 352.162 236.5 351.239 237.214V236.235C352.025 235.673 352.86 235.168 353.783 234.79Z" fill="white"/>
<path d="M379.239 167.895C379.989 166.931 380.888 166.163 381.822 165.441C382.77 164.739 383.754 164.084 384.888 163.627C384.138 164.592 383.239 165.361 382.305 166.081C381.356 166.781 380.371 167.436 379.239 167.895Z" fill="white"/>
<path d="M347.297 211.476C348.261 212.227 349.029 213.126 349.752 214.059C350.454 215.008 351.108 215.992 351.566 217.125C350.6 216.376 349.832 215.477 349.111 214.542C348.411 213.594 347.756 212.609 347.297 211.476Z" fill="white"/>
<path d="M360.602 174.805C361.566 175.555 362.335 176.454 363.057 177.388C363.759 178.337 364.413 179.321 364.871 180.454C363.905 179.704 363.137 178.805 362.416 177.871C361.716 176.921 361.061 175.937 360.602 174.805Z" fill="white"/>
<path d="M394.193 234.099C395.157 234.85 395.925 235.749 396.647 236.682C397.35 237.631 398.004 238.615 398.461 239.749C397.496 238.999 396.728 238.1 396.007 237.166C395.307 236.217 394.652 235.232 394.193 234.099Z" fill="white"/>
<path d="M429.063 257.389C430.027 258.139 430.796 259.038 431.518 259.972C432.22 260.92 432.875 261.905 433.332 263.038C432.366 262.288 431.598 261.389 430.878 260.455C430.178 259.505 429.523 258.521 429.063 257.389Z" fill="white"/>
<path d="M393.545 157.49C394.509 158.24 395.277 159.139 395.999 160.073C396.702 161.021 397.356 162.005 397.813 163.139C396.848 162.389 396.08 161.49 395.359 160.556C394.658 159.607 394.004 158.622 393.545 157.49Z" fill="white"/>
<path d="M387.297 202.682C388.261 203.433 389.029 204.332 389.75 205.265C390.453 206.214 391.107 207.198 391.564 208.331C390.599 207.582 389.831 206.683 389.11 205.748C388.41 204.799 387.755 203.815 387.297 202.682Z" fill="white"/>
<path d="M383.989 150.932C383.453 152.363 375.17 161.022 368.47 159.831C366.289 159.439 367.896 147.437 367.896 147.437L367.811 146.523L366.646 133.741L382.453 126.272L384.722 125.306C384.722 125.306 384.81 128.824 384.876 133.206C384.88 133.409 384.884 133.613 384.886 133.83C384.896 134.078 384.909 134.311 384.907 134.543C384.926 135.198 384.942 135.866 384.943 136.532C384.947 137.04 384.953 137.533 384.937 138.065C384.935 138.599 384.922 139.118 384.92 139.653C384.787 144.923 384.207 150.324 383.989 150.932Z" fill="#E99A90"/>
<path d="M384.877 133.208C380.035 142.632 371.614 145.637 367.811 146.524L366.646 133.742L382.453 126.273L384.722 125.307C384.722 125.307 384.811 128.825 384.877 133.208Z" fill="#263238"/>
<path d="M350.389 114.912C348.603 137.369 361.851 140.974 366.694 141.354C371.09 141.699 386.102 142.315 390.2 120.163C394.297 98.0123 384.422 90.0827 374.408 88.7623C364.396 87.4419 352.176 92.4562 350.389 114.912Z" fill="#E99A90"/>
<path d="M354.175 110.14C354.704 110.084 355.183 109.943 355.7 109.833C356.285 109.709 356.762 109.67 357.196 109.223C357.429 108.984 357.415 108.493 357.204 108.245C356.712 107.667 355.959 107.641 355.25 107.761C354.48 107.892 353.921 108.19 353.408 108.777C352.911 109.347 353.478 110.214 354.175 110.14Z" fill="#263238"/>
<path d="M369.123 110.46C368.595 110.393 368.119 110.244 367.603 110.124C367.022 109.99 366.545 109.941 366.119 109.487C365.891 109.243 365.914 108.753 366.13 108.509C366.633 107.94 367.386 107.928 368.093 108.062C368.86 108.208 369.414 108.517 369.916 109.112C370.402 109.69 369.82 110.547 369.123 110.46Z" fill="#263238"/>
<path d="M365.605 116.121C365.619 116.063 365.723 116.197 365.719 116.26C365.62 117.792 365.764 119.562 367.134 120.116C367.177 120.134 367.17 120.21 367.118 120.201C365.434 119.908 365.267 117.556 365.605 116.121Z" fill="#263238"/>
<path d="M367.027 114.565C369.499 114.458 369.53 119.41 367.24 119.509C364.986 119.606 364.955 114.654 367.027 114.565Z" fill="#263238"/>
<path d="M368.001 114.821C368.435 115.099 368.862 115.591 369.383 115.639C369.987 115.695 370.439 115.173 370.83 114.672C370.871 114.62 370.914 114.664 370.915 114.729C370.935 115.677 370.577 116.653 369.56 116.8C368.633 116.935 367.962 116.1 367.719 115.147C367.674 114.971 367.826 114.709 368.001 114.821Z" fill="#263238"/>
<path d="M357.093 115.783C357.08 115.724 356.974 115.856 356.976 115.92C357.046 117.453 356.869 119.22 355.488 119.749C355.446 119.765 355.451 119.842 355.502 119.834C357.192 119.573 357.405 117.224 357.093 115.783Z" fill="#263238"/>
<path d="M355.701 114.2C353.231 114.047 353.107 118.997 355.395 119.139C357.646 119.278 357.77 114.328 355.701 114.2Z" fill="#263238"/>
<path d="M354.66 114.5C354.263 114.753 353.864 115.219 353.395 115.238C352.854 115.26 352.466 114.715 352.133 114.192C352.098 114.139 352.058 114.179 352.055 114.244C352.005 115.19 352.293 116.183 353.198 116.388C354.022 116.575 354.652 115.778 354.901 114.841C354.948 114.667 354.821 114.399 354.66 114.5Z" fill="#263238"/>
<path d="M365.717 128.258C365.369 128.635 365.029 129.148 364.475 129.223C363.944 129.295 363.307 129.087 362.808 128.923C362.759 128.907 362.713 128.961 362.746 129.005C363.174 129.572 364.029 129.897 364.733 129.736C365.42 129.579 365.732 128.962 365.868 128.319C365.887 128.229 365.768 128.203 365.717 128.258Z" fill="#263238"/>
<path d="M359.335 122.678C359.335 122.678 359.006 124.967 359 126.048C359 126.149 359.261 126.199 359.628 126.222C359.645 126.228 359.655 126.235 359.67 126.224C361.577 126.532 363.501 125.884 364.67 124.333C364.745 124.227 364.609 124.115 364.51 124.182C363.08 125.22 361.504 125.481 359.812 125.5C359.738 125.201 360.507 121.599 360.336 121.585C359.745 121.531 358.579 121.927 357.879 122.128C358.426 117.34 359.737 112.678 360.21 107.902C360.224 107.731 359.979 107.679 359.929 107.83C358.209 112.618 357.458 118.115 356.765 123.045C356.673 123.658 358.902 122.86 359.335 122.678Z" fill="#263238"/>
<path d="M359.858 125.998C359.858 125.998 360.903 127.443 362.351 127.979C362.884 128.178 363.46 128.261 364.067 128.106C365.313 127.795 365.358 126.655 365.142 125.677C364.967 124.873 364.603 124.177 364.603 124.177C364.603 124.177 362.768 125.853 359.858 125.998Z" fill="#263238"/>
<path d="M362.35 127.979C362.883 128.178 363.46 128.261 364.066 128.106C365.313 127.795 365.358 126.655 365.141 125.677C363.809 125.797 362.479 126.686 362.35 127.979Z" fill="#EB9481"/>
<path d="M389.2 122.401C384.258 120.043 384.065 114.856 384.065 114.856C377.925 112.196 374.621 107.392 374.278 106.905C374.427 107.367 375.495 110.707 376.094 112.392C361.888 109.67 357.538 98.7707 357.538 98.7707C352.907 103.352 351.973 106.291 351.298 107.756C351.298 107.756 351.234 99.0324 355.746 93.2131C361.267 86.0862 379.81 84.2401 388.346 93.6064C397.535 103.71 389.2 122.401 389.2 122.401Z" fill="#263238"/>
<path d="M365.297 109.989C367.556 111.274 370.071 112.146 372.578 112.7C372.599 112.705 372.604 112.674 372.585 112.668C368.584 111.515 364.998 109.4 362.177 106.311C360.985 105.006 359.961 103.569 359.129 102.009C358.258 100.378 357.411 98.4376 357.264 96.5802C357.253 96.4389 357.033 96.4566 357.044 96.5979C357.2 98.562 357.364 100.372 358.147 102.205C358.891 103.946 359.964 105.568 361.284 106.927C362.464 108.14 363.826 109.152 365.297 109.989Z" fill="#263238"/>
<path d="M386.493 121.605C386.493 121.605 391.359 114.539 394.562 116.269C397.765 118 394.141 128.218 390.405 129.639C386.67 131.06 385.287 127.628 385.287 127.628L386.493 121.605Z" fill="#E99A90"/>
<path d="M393.451 119.172C393.511 119.167 393.523 119.251 393.472 119.273C390.853 120.355 389.488 122.8 388.538 125.333C389.312 124.355 390.372 123.815 391.68 124.736C391.749 124.784 391.684 124.891 391.61 124.877C390.533 124.654 389.758 124.846 389.038 125.713C388.527 126.327 388.181 127.101 387.818 127.808C387.696 128.044 387.272 127.921 387.359 127.65C387.366 127.63 387.374 127.609 387.38 127.589C387.289 124.24 389.858 119.535 393.451 119.172Z" fill="#263238"/>
<path d="M387.278 129.128C387.278 130.035 388.013 130.771 388.92 130.771C389.827 130.771 390.563 130.035 390.563 129.128C390.563 128.221 389.827 127.486 388.92 127.486C388.013 127.486 387.278 128.221 387.278 129.128Z" fill="white"/>
<path d="M360.592 155.514C360.592 155.514 355.994 168.562 364.304 169.487C372.613 170.411 394.312 154.368 394.312 154.368C394.312 154.368 388.286 144.617 378.67 145.659C370.689 146.523 360.592 155.514 360.592 155.514Z" fill="#E99A90"/>
<path d="M399.826 170.793C399.811 186.913 390.564 235.239 381.67 241.748C363.872 254.775 322.141 253.878 310.63 254.076C305.662 254.162 299.137 221.084 302.839 217.273C306.54 213.463 357.383 212.061 359.985 210.11C361.794 208.753 376.144 185.229 384.454 170.104C395.685 149.661 399.834 162.674 399.826 170.793Z" fill="#E99A90"/>
<path d="M311.696 215.514C311.696 215.514 296.674 213.853 286.8 213.228C281.29 212.88 271.792 213.125 267.628 214.719C261.399 217.106 236.871 231.063 240.128 237.083C243.075 242.532 250.569 236.505 250.569 236.505C250.569 236.505 241.76 242.323 246.345 246.829C250.972 251.376 259.968 242.574 259.968 242.574C259.968 242.574 250.188 248.102 255.541 252.446C260.187 256.216 271.649 247.206 271.649 247.206C271.649 247.206 260.744 251.883 265.127 256.212C269.969 260.996 288.851 249.644 288.851 249.644C301.139 253.738 309.071 254.537 318.472 253.943C320.196 253.834 311.696 215.514 311.696 215.514Z" fill="#E99A90"/>
<path d="M257.23 244.563C257.967 243.901 258.719 243.259 259.456 242.6C260.904 241.307 262.327 240.056 263.919 238.94C265.458 237.861 267.038 236.857 268.652 235.896C270.357 234.882 272.176 234.036 273.853 232.981C273.988 232.896 274.105 233.092 273.965 233.17C272.274 234.122 270.711 235.389 269.143 236.529C267.59 237.658 266.05 238.809 264.513 239.96C263.009 241.086 261.441 242.101 259.907 243.182C259.143 243.721 258.402 244.295 257.662 244.866C256.968 245.401 256.292 246.047 255.515 246.455C255.438 246.496 255.371 246.391 255.416 246.329C255.905 245.654 256.613 245.116 257.23 244.563Z" fill="#263238"/>
<path d="M248.758 237.752C249.778 236.428 255.385 231.854 256.887 230.77C259.791 228.676 262.897 226.83 266.158 225.356C266.272 225.304 266.372 225.47 266.27 225.545C263.372 227.659 260.438 229.734 257.509 231.809C256.077 232.824 249.716 237.629 248.987 238.048C248.813 238.15 248.648 237.896 248.758 237.752Z" fill="#263238"/>
<path d="M265.023 251.171C266.059 249.954 271.351 245.715 272.787 244.746C274.135 243.836 280.15 240.763 282.024 240.166C282.143 240.128 282.244 240.291 282.135 240.355C279.186 242.11 276.214 243.807 273.349 245.702C271.954 246.625 266.604 250.625 265.194 251.391C265.067 251.461 264.933 251.278 265.023 251.171Z" fill="#263238"/>
<path d="M321.818 256.509L308.091 212.891C308.091 212.891 358.04 209.699 359.66 208.863C361.279 208.026 379.085 176.573 386.125 164.344C393.165 152.114 404.072 157.149 400.005 184.751C395.912 212.518 391.422 234.096 385.199 240.513C377.649 248.299 350.035 256.323 321.818 256.509Z" fill="#256FFF"/>
<path d="M363.663 228.813C363.512 227.601 363.604 226.422 363.754 225.252C363.928 224.085 364.161 222.926 364.639 221.8C364.791 223.013 364.699 224.191 364.548 225.362C364.372 226.53 364.139 227.689 363.663 228.813Z" fill="white"/>
<path d="M336.065 253.775C335.914 252.562 336.006 251.384 336.156 250.213C336.33 249.046 336.563 247.887 337.041 246.761C337.194 247.974 337.101 249.153 336.95 250.324C336.775 251.491 336.542 252.65 336.065 253.775Z" fill="white"/>
<path d="M378.805 190.47C378.654 189.258 378.747 188.079 378.896 186.908C379.07 185.741 379.304 184.582 379.781 183.457C379.934 184.67 379.842 185.848 379.691 187.019C379.514 188.186 379.281 189.345 378.805 190.47Z" fill="white"/>
<path d="M386.798 224.422C385.585 224.573 384.407 224.48 383.236 224.331C382.069 224.157 380.91 223.923 379.785 223.446C380.998 223.293 382.176 223.386 383.347 223.536C384.513 223.712 385.672 223.946 386.798 224.422Z" fill="white"/>
<path d="M338.842 225.795C337.63 225.946 336.451 225.854 335.281 225.704C334.114 225.53 332.955 225.297 331.83 224.819C333.042 224.667 334.221 224.759 335.391 224.91C336.558 225.086 337.717 225.319 338.842 225.795Z" fill="white"/>
<path d="M372.374 246.167C373.124 245.203 374.023 244.435 374.957 243.712C375.905 243.01 376.889 242.356 378.024 241.898C377.274 242.864 376.375 243.632 375.441 244.353C374.491 245.053 373.506 245.708 372.374 246.167Z" fill="white"/>
<path d="M314.816 220.21C315.567 219.246 316.466 218.478 317.399 217.756C318.348 217.053 319.332 216.399 320.466 215.941C319.716 216.907 318.817 217.675 317.883 218.396C316.933 219.097 315.948 219.751 314.816 220.21Z" fill="white"/>
<path d="M366.513 202.315C365.767 203.278 364.868 204.049 363.929 204.771C363.198 205.309 362.444 205.822 361.617 206.24C361.866 205.855 362.139 205.429 362.419 204.972C362.419 204.964 362.428 204.964 362.428 204.964C362.757 204.675 363.102 204.394 363.447 204.129C364.394 203.43 365.381 202.772 366.513 202.315Z" fill="white"/>
<path d="M400.482 180.875C400.458 181.212 400.418 181.55 400.378 181.895C399.736 182.32 399.054 182.705 398.315 183.002C398.957 182.184 399.704 181.509 400.482 180.875Z" fill="white"/>
<path d="M348.135 239.059C348.885 238.095 349.784 237.327 350.717 236.605C351.666 235.902 352.65 235.248 353.784 234.791C353.034 235.756 352.135 236.524 351.201 237.245C350.251 237.945 349.267 238.6 348.135 239.059Z" fill="white"/>
<path d="M347.297 211.476C348.261 212.227 349.03 213.126 349.752 214.059C350.454 215.008 351.108 215.992 351.566 217.125C350.6 216.376 349.832 215.477 349.111 214.542C348.411 213.594 347.756 212.609 347.297 211.476Z" fill="white"/>
<path d="M397.81 163.137C396.846 162.39 396.084 161.491 395.361 160.56C394.775 159.773 394.23 158.963 393.804 158.064C393.957 158.064 394.101 158.072 394.246 158.088C394.896 158.698 395.458 159.372 395.996 160.07C396.702 161.025 397.352 162.005 397.81 163.137Z" fill="white"/>
<path d="M387.297 202.682C388.261 203.433 389.029 204.332 389.75 205.265C390.453 206.214 391.107 207.198 391.564 208.332C390.599 207.582 389.831 206.683 389.11 205.749C388.41 204.799 387.755 203.815 387.297 202.682Z" fill="white"/>
<path d="M375.292 182.797C373.665 185.236 372.159 187.75 370.653 190.264C370.611 190.334 370.568 190.405 370.526 190.475C370.601 190.284 370.678 190.094 370.753 189.904C371.243 188.657 371.674 187.38 372.206 186.15C372.239 186.077 372.129 186.015 372.097 186.089C371.556 187.301 370.953 188.481 370.438 189.705C370.092 190.528 369.777 191.366 369.485 192.21C368.368 194.072 367.251 195.935 366.154 197.809C364.674 200.335 363.206 202.869 361.717 205.39C361.353 206.006 360.995 206.627 360.625 207.24C360.305 207.769 359.939 208.243 359.328 208.44C358.69 208.645 357.943 208.641 357.281 208.71C356.55 208.787 355.821 208.877 355.092 208.965C351.767 209.369 348.467 209.917 345.147 210.351C345.068 210.362 345.068 210.483 345.15 210.476C348.204 210.248 351.262 210.132 354.316 209.883C355.818 209.761 357.331 209.656 358.826 209.464C359.393 209.391 359.943 209.268 360.396 208.901C360.833 208.548 361.122 208.06 361.399 207.579C364.424 202.344 367.454 197.112 370.468 191.871C372.175 188.902 373.91 185.946 375.484 182.903C375.55 182.776 375.37 182.681 375.292 182.797Z" fill="#263238"/>
<path d="M400.093 194.438C400.009 195.42 399.642 196.44 399.38 197.387C399.143 198.246 398.911 199.106 398.648 199.958C398.351 200.924 398.02 201.877 397.686 202.829C398.36 198.582 398.897 194.315 399.293 190.02C399.305 189.891 399.082 189.865 399.064 189.995C398.262 195.986 397.156 201.958 395.9 207.871C394.642 213.794 393.111 219.679 391.387 225.483C390.538 228.339 389.642 231.19 388.639 233.996C387.78 236.401 386.754 238.838 385.14 240.843C383.386 243.025 380.994 244.399 378.485 245.554C375.825 246.778 373.094 247.848 370.313 248.758C363.993 250.826 357.457 252.142 351.001 253.697C350.933 253.713 350.95 253.831 351.021 253.82C356.95 252.943 362.847 251.858 368.628 250.257C371.544 249.45 374.468 248.539 377.262 247.372C379.84 246.296 382.496 245.129 384.576 243.218C386.542 241.412 387.87 239.02 388.878 236.577C389.961 233.949 390.812 231.22 391.655 228.507C393.496 222.584 395.042 216.609 396.299 210.535C396.663 208.774 396.995 207.01 397.301 205.244C398.046 203.588 398.583 201.814 399.05 200.06C399.295 199.139 399.529 198.211 399.71 197.275C399.889 196.347 399.954 195.36 400.215 194.453C400.241 194.368 400.101 194.343 400.093 194.438Z" fill="#263238"/>
<path d="M330.509 252.992C328.243 246.725 325.854 240.51 323.866 234.146C321.905 227.868 319.993 221.5 318.704 215.047C318.68 214.925 318.87 214.867 318.915 214.985C321.265 221.137 323.175 227.482 325.151 233.765C327.143 240.095 328.873 246.502 330.874 252.829C330.95 253.071 330.598 253.237 330.509 252.992Z" fill="#263238"/>
<path d="M322.09 211.873C320.906 211.782 319.688 211.854 318.502 211.883C317.307 211.913 316.111 211.962 314.917 212.013C312.527 212.115 310.14 212.294 307.757 212.497C307.578 212.512 307.399 212.692 307.476 212.884C307.801 213.701 308.152 214.683 308.699 215.379C308.733 215.423 308.82 215.413 308.815 215.344C308.761 214.592 308.467 213.798 308.19 213.071C310.471 212.92 312.752 212.781 315.032 212.607C316.225 212.515 317.42 212.438 318.613 212.345C319.776 212.254 320.965 212.217 322.116 212.032C322.213 212.017 322.174 211.879 322.09 211.873Z" fill="#263238"/>
<path d="M268.175 202.525C271.152 204.002 284.758 204.564 288.728 209.441C291.368 212.684 291.108 215.966 292.646 225.657C293.981 234.065 287.008 232.063 285.008 227.762C281.863 220.994 279.156 213.575 279.156 213.575C275.966 213.356 272.192 213.681 272.192 213.681L268.175 202.525Z" fill="#F7A9A0"/>
<path d="M277.986 234.333C282.695 231.347 297.767 250.365 290.236 255.405C282.706 260.444 272.651 237.716 277.986 234.333Z" fill="#F7A9A0"/>
<path d="M270.349 238.384C275.058 235.398 290.13 254.416 282.6 259.455C275.069 264.496 265.015 241.767 270.349 238.384Z" fill="#F7A9A0"/>
<path d="M264.945 239.132C269.641 237.074 280.689 256.457 273.143 259.989C265.597 263.52 259.625 241.463 264.945 239.132Z" fill="#F7A9A0"/>
<path d="M259.413 238.597C264.352 238.01 269.148 259.118 261.147 260.27C253.146 261.423 253.817 239.263 259.413 238.597Z" fill="#F7A9A0"/>
<path d="M276.91 240.916C277.806 241.839 278.522 242.921 279.252 243.977C280.034 245.107 280.805 246.253 281.474 247.455C282.113 248.602 282.746 249.786 283.242 251.002C283.771 252.299 284.145 253.675 284.711 254.951C284.775 255.096 284.566 255.184 284.507 255.034C284.023 253.791 283.25 252.596 282.591 251.436C281.929 250.274 281.324 249.078 280.675 247.908C280.042 246.768 279.439 245.612 278.788 244.483C278.121 243.326 277.359 242.221 276.76 241.029C276.714 240.934 276.833 240.837 276.91 240.916Z" fill="#263238"/>
<path d="M269.065 240.809C269.554 242.239 271.168 247.696 271.717 249.108C272.27 250.529 272.862 251.939 273.48 253.333C274.108 254.748 274.66 256.249 275.412 257.6C275.482 257.726 275.289 257.835 275.219 257.709C274.46 256.346 273.584 255.071 272.89 253.666C272.206 252.279 271.596 250.868 271.046 249.423C270.492 247.968 269.03 242.34 268.835 240.838C268.818 240.701 269.025 240.692 269.065 240.809Z" fill="#263238"/>
<path d="M263.153 242.17C263.529 244.208 263.776 246.268 264.16 248.307C264.35 249.313 264.546 250.316 264.73 251.323C264.819 251.811 264.899 252.3 264.986 252.787C265.08 253.312 265.102 253.967 265.301 254.454C265.356 254.589 265.105 254.656 265.083 254.482C265.008 253.894 264.683 253.266 264.511 252.694C264.37 252.221 264.233 251.747 264.113 251.268C263.864 250.274 263.667 249.275 263.507 248.262C263.191 246.282 262.89 244.212 262.881 242.205C262.88 242.053 263.124 242.012 263.153 242.17Z" fill="#263238"/>
<path d="M336.602 107.188C338.581 104.175 339.693 100.786 339.693 97.205C339.693 84.5581 325.804 74.3041 308.683 74.3041C291.562 74.3041 277.687 84.5581 277.687 97.205C277.687 109.852 291.561 120.107 308.683 120.107C316.985 120.107 324.511 117.701 330.072 113.77L340.753 116.486L336.602 107.188Z" fill="#9DBEFF"/>
<path d="M297.534 97.2033C297.534 98.9788 296.094 100.418 294.319 100.418C292.543 100.418 291.103 98.9788 291.103 97.2033C291.103 95.4278 292.543 93.9886 294.319 93.9886C296.094 93.9886 297.534 95.4278 297.534 97.2033Z" fill="#263238"/>
<path d="M308.687 100.418C310.462 100.418 311.902 98.9787 311.902 97.2033C311.902 95.4279 310.462 93.9886 308.687 93.9886C306.911 93.9886 305.472 95.4279 305.472 97.2033C305.472 98.9787 306.911 100.418 308.687 100.418Z" fill="#263238"/>
<path d="M326.27 97.2033C326.27 98.9788 324.831 100.418 323.055 100.418C321.28 100.418 319.84 98.9788 319.84 97.2033C319.84 95.4278 321.28 93.9886 323.055 93.9886C324.831 93.9886 326.27 95.4278 326.27 97.2033Z" fill="#263238"/>
<path d="M224.678 38.4956C222.891 53.4685 213.263 56.1992 211.642 60.19C210.776 62.3508 209.622 67.8443 209.622 67.8443L193.973 67.8074C193.973 67.8074 192.855 62.3083 191.989 60.1435C190.396 56.1454 180.772 53.369 179.065 38.3872C177.937 28.5433 185.373 13.0221 201.932 13.0615C218.491 13.1008 225.843 28.6565 224.678 38.4956Z" fill="#98B8F5"/>
<path d="M193.765 43.8753L192.975 44.0206L197.558 68.9246L198.348 68.7793L193.765 43.8753Z" fill="white"/>
<path d="M209.937 43.9053L205.239 68.7864L206.028 68.9353L210.725 44.0541L209.937 43.9053Z" fill="white"/>
<path d="M201.844 52.234C201.843 52.234 201.84 52.234 201.839 52.234C200.612 52.2316 199.376 51.254 198.359 49.4817C198.312 49.4014 198.267 49.3196 198.222 49.2361C197.791 49.7145 197.33 49.9689 196.881 49.9689H196.879C194.532 49.9633 193.605 45.1288 193.567 44.9234L193.961 44.8495C193.97 44.8969 194.864 49.5628 196.88 49.5676H196.882C197.244 49.5676 197.644 49.3131 198.027 48.85C197.035 46.8144 196.488 44.1488 197.19 42.9384C197.431 42.5242 197.805 42.3051 198.273 42.3051H198.276C198.844 42.3059 199.289 42.5611 199.565 43.0427C200.268 44.2676 199.748 46.8032 198.819 48.4021C198.715 48.5819 198.608 48.7465 198.498 48.8966C198.565 49.0266 198.635 49.155 198.707 49.281C199.253 50.2322 200.386 51.8279 201.84 51.8319C201.842 51.8319 201.843 51.8319 201.845 51.8319C202.815 51.8319 203.79 51.0694 204.594 49.6848C204.661 49.5708 204.725 49.4536 204.787 49.3348C204.588 49.1141 204.404 48.8564 204.236 48.5643C203.27 46.8803 203.075 44.3856 203.812 43.1149C204.114 42.5956 204.551 42.3219 205.077 42.3219H205.08C205.498 42.3227 205.839 42.5338 206.067 42.9319C206.758 44.1359 206.371 47.0023 205.274 49.2578C205.672 49.6302 206.188 49.9111 206.842 49.9127H206.844C208.276 49.9127 209.547 46.4974 209.917 45.1802L210.303 45.2886C210.245 45.4941 208.871 50.3141 206.843 50.3141H206.84C206.19 50.3125 205.597 50.0789 205.084 49.6294C205.036 49.7161 204.989 49.8012 204.94 49.8854C204.319 50.9578 203.277 52.234 201.844 52.234ZM205.077 42.7232C204.697 42.7232 204.388 42.9231 204.159 43.3164C203.496 44.4578 203.695 46.816 204.584 48.3644C204.693 48.5538 204.824 48.7529 204.98 48.9431C205.962 46.8393 206.33 44.1945 205.719 43.1318C205.562 42.8581 205.353 42.724 205.08 42.7232H205.077ZM198.271 42.7072C197.946 42.7072 197.705 42.8493 197.535 43.1406C196.978 44.0998 197.339 46.4468 198.293 48.4872C198.353 48.3973 198.412 48.3026 198.471 48.2022C199.325 46.7302 199.841 44.3326 199.216 43.2442C199.01 42.8846 198.702 42.7088 198.274 42.708L198.271 42.7072Z" fill="white"/>
<path d="M211.452 67.1889L192.145 67.1426L192.136 70.9159L211.443 70.9623L211.452 67.1889Z" fill="#455A64"/>
<path d="M211.441 71.5722L192.134 71.5259L192.125 75.2992L211.432 75.3456L211.441 71.5722Z" fill="#455A64"/>
<path d="M211.43 75.9584L192.123 75.9121L192.114 79.6854L211.421 79.7318L211.43 75.9584Z" fill="#455A64"/>
<path d="M202.645 0.776001C202.945 1.82027 203 2.86133 202.998 3.90158C202.97 4.94104 202.883 5.97969 202.548 7.01433C202.247 5.97006 202.191 4.929 202.195 3.88874C202.226 2.84929 202.312 1.81064 202.645 0.776001Z" fill="#263238"/>
<path d="M185.144 5.05249C185.927 5.807 186.494 6.6811 187.013 7.58249C187.508 8.49673 187.952 9.43987 188.18 10.5034C187.395 9.7497 186.827 8.87559 186.311 7.97339C185.817 7.05835 185.373 6.11522 185.144 5.05249Z" fill="#263238"/>
<path d="M172.127 17.5076C173.182 17.77 174.111 18.2428 175.011 18.7645C175.897 19.3088 176.753 19.9035 177.482 20.7102C176.426 20.4493 175.497 19.9766 174.599 19.4532C173.713 18.9074 172.857 18.3126 172.127 17.5076Z" fill="#263238"/>
<path d="M167.081 34.8019C168.125 34.5017 169.166 34.4463 170.206 34.4487C171.246 34.4768 172.285 34.5635 173.319 34.8982C172.275 35.2 171.234 35.2554 170.194 35.2513C169.154 35.2217 168.115 35.135 167.081 34.8019Z" fill="#263238"/>
<path d="M171.358 52.3025C172.112 51.5199 172.986 50.9524 173.888 50.4339C174.802 49.9379 175.745 49.4948 176.808 49.2668C176.055 50.0511 175.181 50.6193 174.278 51.1354C173.363 51.6299 172.42 52.0738 171.358 52.3025Z" fill="#263238"/>
<path d="M231.625 53.6348C230.57 53.3723 229.642 52.8995 228.742 52.3778C227.856 51.8336 226.999 51.2388 226.27 50.4321C227.326 50.693 228.255 51.1658 229.154 51.6891C230.039 52.2349 230.895 52.8297 231.625 53.6348Z" fill="#263238"/>
<path d="M236.671 36.3406C235.627 36.6408 234.586 36.6961 233.545 36.6937C232.506 36.6656 231.467 36.5789 230.433 36.2442C231.477 35.9424 232.518 35.8871 233.558 35.8911C234.598 35.9208 235.636 36.0075 236.671 36.3406Z" fill="#263238"/>
<path d="M232.394 18.8391C231.639 19.6217 230.765 20.1892 229.864 20.7069C228.95 21.203 228.006 21.6468 226.944 21.874C227.697 21.0898 228.571 20.5215 229.474 20.0054C230.389 19.5126 231.332 19.0687 232.394 18.8391Z" fill="#263238"/>
<path d="M219.94 5.82251C219.677 6.87721 219.205 7.8059 218.683 8.70568C218.139 9.59183 217.544 10.4475 216.737 11.1771C216.998 10.1216 217.471 9.1921 217.994 8.29392C218.539 7.40777 219.134 6.55213 219.94 5.82251Z" fill="#263238"/>
</g>
<defs>
<clipPath id="clip0_1_19">
<rect width="530" height="290" fill="white"/>
</clipPath>
</defs>
</svg>
