<svg width="25" height="25" viewBox="0 0 25 25" fill="none" xmlns="http://www.w3.org/2000/svg">
<path d="M17.5499 20.78C16.5699 21.73 15.4999 21.58 14.4699 21.13C13.3799 20.67 12.3799 20.65 11.2299 21.13C9.78992 21.75 9.02992 21.57 8.16992 20.78C3.28992 15.75 4.00992 8.09 9.54992 7.81C10.8999 7.88 11.8399 8.55 12.6299 8.61C13.8099 8.37 14.9399 7.68 16.1999 7.77C17.7099 7.89 18.8499 8.49 19.5999 9.57C16.4799 11.44 17.2199 15.55 20.0799 16.7C19.5099 18.2 18.7699 19.69 17.5399 20.79L17.5499 20.78ZM12.5299 7.75C12.3799 5.52 14.1899 3.68 16.2699 3.5C16.5599 6.08 13.9299 8 12.5299 7.75Z" fill="black"/>
</svg>
