<svg width="13" height="13" viewBox="0 0 13 13" fill="none" xmlns="http://www.w3.org/2000/svg">
<path d="M7.04427 6.63217L2.0237 7.46938C1.96598 7.47901 1.91181 7.50367 1.86665 7.54088C1.82148 7.57809 1.78691 7.62654 1.7664 7.68135L0.0353343 12.3186C-0.129974 12.7452 0.315958 13.1519 0.72523 12.9472L12.7234 6.94813C12.8065 6.90663 12.8764 6.8428 12.9253 6.7638C12.9741 6.6848 13 6.59375 13 6.50086C13 6.40797 12.9741 6.31692 12.9253 6.23792C12.8764 6.15892 12.8065 6.09509 12.7234 6.0536L0.72523 0.0545046C0.315958 -0.150131 -0.129974 0.257141 0.0353343 0.683076L1.76707 5.32037C1.78748 5.37531 1.82201 5.42389 1.86718 5.46122C1.91235 5.49855 1.96657 5.52331 2.02437 5.53301L7.04494 6.36955C7.07583 6.37496 7.10383 6.39109 7.12401 6.41511C7.14419 6.43913 7.15525 6.46949 7.15525 6.50086C7.15525 6.53223 7.14419 6.56259 7.12401 6.58661C7.10383 6.61063 7.07583 6.62676 7.04494 6.63217H7.04427Z" fill="white"/>
</svg>
