<svg width="32" height="32" viewBox="0 0 32 32" fill="none" xmlns="http://www.w3.org/2000/svg">
<path d="M15.95 22C16.3 22 16.596 21.879 16.838 21.637C17.08 21.395 17.2007 21.0993 17.2 20.75C17.2 20.4 17.0793 20.104 16.838 19.862C16.5967 19.62 16.3007 19.4993 15.95 19.5C15.6 19.5 15.3043 19.621 15.063 19.863C14.8217 20.105 14.7007 20.4006 14.7 20.75C14.7 21.1 14.821 21.396 15.063 21.638C15.305 21.88 15.6007 22.0006 15.95 22ZM15.05 18.15H16.9C16.9 17.6 16.9627 17.1666 17.088 16.85C17.2133 16.5333 17.5673 16.1 18.15 15.55C18.5833 15.1166 18.925 14.704 19.175 14.312C19.425 13.92 19.55 13.4493 19.55 12.9C19.55 11.9666 19.2083 11.25 18.525 10.75C17.8417 10.25 17.0333 9.99997 16.1 9.99997C15.15 9.99997 14.3793 10.25 13.788 10.75C13.1967 11.25 12.784 11.85 12.55 12.55L14.2 13.2C14.2833 12.9 14.471 12.575 14.763 12.225C15.055 11.875 15.5007 11.7 16.1 11.7C16.6333 11.7 17.0333 11.846 17.3 12.138C17.5667 12.43 17.7 12.7506 17.7 13.1C17.7 13.4333 17.6 13.746 17.4 14.038C17.2 14.33 16.95 14.6006 16.65 14.85C15.9167 15.5 15.4667 15.9916 15.3 16.325C15.1333 16.6583 15.05 17.2666 15.05 18.15ZM16 26C14.6167 26 13.3167 25.7376 12.1 25.213C10.8833 24.6883 9.825 23.9756 8.925 23.075C8.025 22.175 7.31267 21.1166 6.788 19.9C6.26333 18.6833 6.00067 17.3833 6 16C6 14.6166 6.26267 13.3166 6.788 12.1C7.31333 10.8833 8.02567 9.82497 8.925 8.92497C9.825 8.02497 10.8833 7.31264 12.1 6.78797C13.3167 6.2633 14.6167 6.00064 16 5.99997C17.3833 5.99997 18.6833 6.26264 19.9 6.78797C21.1167 7.3133 22.175 8.02564 23.075 8.92497C23.975 9.82497 24.6877 10.8833 25.213 12.1C25.7383 13.3166 26.0007 14.6166 26 16C26 17.3833 25.7373 18.6833 25.212 19.9C24.6867 21.1166 23.9743 22.175 23.075 23.075C22.175 23.975 21.1167 24.6876 19.9 25.213C18.6833 25.7383 17.3833 26.0006 16 26ZM16 24C18.2333 24 20.125 23.225 21.675 21.675C23.225 20.125 24 18.2333 24 16C24 13.7666 23.225 11.875 21.675 10.325C20.125 8.77497 18.2333 7.99997 16 7.99997C13.7667 7.99997 11.875 8.77497 10.325 10.325C8.775 11.875 8 13.7666 8 16C8 18.2333 8.775 20.125 10.325 21.675C11.875 23.225 13.7667 24 16 24Z" fill="#737373"/>
</svg>
