<svg width="30" height="26" viewBox="0 0 30 26" fill="none" xmlns="http://www.w3.org/2000/svg">
<path d="M22.0952 20.2254H12.4911C12.4099 21.1184 12.1227 21.9803 11.6521 22.7434C11.1815 23.5066 10.5403 24.1502 9.77894 24.6237C9.01755 25.0971 8.15672 25.3876 7.26412 25.4721C6.37152 25.5567 5.47147 25.433 4.63473 25.1109C3.79798 24.7888 3.04735 24.2771 2.44182 23.6158C1.8363 22.9546 1.39239 22.1619 1.14499 21.3002C0.897596 20.4384 0.853451 19.5309 1.01603 18.6492C1.17861 17.7675 1.54348 16.9355 2.08196 16.2186C2.166 16.1068 2.29102 16.0329 2.42952 16.0133C2.56802 15.9936 2.70865 16.0298 2.82048 16.1138C2.9323 16.1979 3.00616 16.3229 3.02581 16.4614C3.04545 16.5999 3.00927 16.7405 2.92523 16.8524C2.30612 17.6718 1.97244 18.6714 1.97523 19.6984C1.97523 20.9564 2.47498 22.1629 3.36454 23.0525C4.2541 23.9421 5.46061 24.4418 6.71864 24.4418C7.97667 24.4418 9.18317 23.9421 10.0727 23.0525C10.9623 22.1629 11.462 20.9564 11.462 19.6984C11.462 19.5586 11.5176 19.4246 11.6164 19.3257C11.7153 19.2269 11.8493 19.1714 11.9891 19.1714H22.0952C22.2195 18.8197 22.4642 18.5233 22.7859 18.3346C23.1076 18.1459 23.4857 18.077 23.8533 18.14C24.2209 18.2031 24.5544 18.3941 24.7948 18.6793C25.0352 18.9644 25.167 19.3254 25.167 19.6984C25.167 20.0714 25.0352 20.4324 24.7948 20.7175C24.5544 21.0027 24.2209 21.1937 23.8533 21.2568C23.4857 21.3198 23.1076 21.2509 22.7859 21.0622C22.4642 20.8735 22.2195 20.5771 22.0952 20.2254ZM6.71864 21.2795C7.01704 21.2794 7.30931 21.1948 7.56167 21.0356C7.81404 20.8764 8.01619 20.649 8.14476 20.3797C8.27334 20.1104 8.32309 19.8102 8.28827 19.5139C8.25344 19.2175 8.13547 18.9371 7.94797 18.7049L12.8376 10.7597C12.8741 10.7007 12.8985 10.6351 12.9095 10.5667C12.9206 10.4983 12.918 10.4283 12.9019 10.3609C12.8859 10.2935 12.8567 10.2298 12.8161 10.1737C12.7754 10.1176 12.7241 10.07 12.665 10.0337C12.0315 9.64333 11.4986 9.10936 11.1096 8.47497C10.7206 7.84057 10.4863 7.12355 10.4256 6.38185C10.365 5.64015 10.4797 4.89459 10.7605 4.20543C11.0413 3.51627 11.4804 2.90284 12.0421 2.41474C12.6038 1.92664 13.2726 1.57756 13.9942 1.39571C14.7158 1.21386 15.4701 1.20435 16.196 1.36795C16.922 1.53154 17.5993 1.86365 18.1732 2.33742C18.747 2.8112 19.2014 3.41336 19.4995 4.09522C19.5253 4.16129 19.5641 4.22148 19.6137 4.27219C19.6633 4.32289 19.7226 4.36306 19.7881 4.3903C19.8536 4.41754 19.9239 4.43128 19.9948 4.43071C20.0657 4.43013 20.1358 4.41524 20.2008 4.38694C20.2658 4.35864 20.3245 4.31751 20.3732 4.266C20.422 4.2145 20.4599 4.15368 20.4846 4.0872C20.5093 4.02071 20.5203 3.94993 20.517 3.87908C20.5137 3.80824 20.4961 3.73879 20.4653 3.6749C20.1099 2.86197 19.5726 2.14146 18.8949 1.56886C18.2172 0.996252 17.4171 0.586836 16.5562 0.372136C15.6954 0.157437 14.7967 0.143183 13.9295 0.330472C13.0622 0.517761 12.2496 0.901597 11.554 1.45242C10.8585 2.00324 10.2987 2.70635 9.91763 3.5076C9.53661 4.30885 9.34457 5.18686 9.35631 6.07401C9.36804 6.96116 9.58324 7.83378 9.98532 8.62467C10.3874 9.41556 10.9656 10.1036 11.6755 10.6359L7.05068 18.1528C6.94163 18.1289 6.83029 18.1169 6.71864 18.1173C6.29929 18.1173 5.89713 18.2838 5.60061 18.5804C5.30408 18.8769 5.1375 19.2791 5.1375 19.6984C5.1375 20.1177 5.30408 20.5199 5.60061 20.8164C5.89713 21.1129 6.29929 21.2795 6.71864 21.2795ZM23.5841 13.9009C22.69 13.9006 21.8079 14.1072 21.0068 14.5044L16.3807 6.99397C16.6073 6.71585 16.7326 6.36893 16.736 6.01019C16.7394 5.65146 16.6207 5.30223 16.3994 5.01987C16.1781 4.7375 15.8673 4.53879 15.5182 4.45638C15.169 4.37396 14.8022 4.41273 14.478 4.56632C14.1538 4.71991 13.8915 4.97919 13.7341 5.30158C13.5767 5.62397 13.5336 5.9903 13.6119 6.3404C13.6903 6.6905 13.8853 7.00355 14.1651 7.22815C14.4448 7.45275 14.7926 7.57554 15.1514 7.57635C15.263 7.57601 15.3743 7.56409 15.4834 7.54078L20.3731 15.482C20.4463 15.601 20.5638 15.6859 20.6997 15.7183C20.8356 15.7507 20.9787 15.7278 21.0978 15.6546C21.7223 15.2717 22.427 15.0386 23.1567 14.9737C23.8864 14.9087 24.6213 15.0137 25.3036 15.2803C25.986 15.5469 26.5973 15.968 27.0896 16.5104C27.582 17.0529 27.942 17.702 28.1415 18.407C28.3409 19.1119 28.3744 19.8534 28.2393 20.5734C28.1041 21.2934 27.804 21.9724 27.3626 22.557C26.9211 23.1416 26.3502 23.616 25.6946 23.943C25.0391 24.27 24.3167 24.4408 23.5841 24.4418C23.4443 24.4418 23.3103 24.4973 23.2114 24.5962C23.1126 24.695 23.057 24.8291 23.057 24.9689C23.057 25.1086 23.1126 25.2427 23.2114 25.3415C23.3103 25.4404 23.4443 25.4959 23.5841 25.4959C25.1217 25.4959 26.5963 24.8851 27.6835 23.7978C28.7708 22.7106 29.3816 21.236 29.3816 19.6984C29.3816 18.1608 28.7708 16.6862 27.6835 15.5989C26.5963 14.5117 25.1217 13.9009 23.5841 13.9009Z" fill="#256FFF"/>
</svg>
