<svg width="48" height="48" viewBox="0 0 48 48" fill="none" xmlns="http://www.w3.org/2000/svg">
<path d="M11.7791 42.414C37.8391 30.172 20.0821 11.247 11.1121 20.54C7.75605 24.016 10.6991 28.07 13.1951 29.391C13.5131 29.559 14.0991 29.851 13.2551 28.905C7.07205 22.507 23.7251 18.995 19.0081 30.558C17.8501 34.04 15.4611 37.719 11.8381 41.653C11.3341 42.199 11.2341 42.5 11.5541 42.5C11.6591 42.5 11.7611 42.461 11.7791 42.414ZM36.0341 40.03C40.9161 35.865 32.5781 32.147 29.7871 24.697C29.0541 22.361 30.3791 21.01 29.6021 20.899C29.5061 20.93 26.8751 23.61 26.8751 26.099C26.8751 32.912 37.8591 36.966 32.2651 40.602C28.8411 42.827 33.9251 41.83 36.0341 40.03ZM33.0201 19.511C41.1581 16.691 39.1631 6.27096 32.9651 5.57496C32.1251 5.47996 31.3251 5.47496 30.5781 5.55996C30.5781 5.78996 33.927 7.44896 34.385 12.42C34.529 13.987 34.1881 15.668 33.3611 17.459C32.5911 19.127 31.4791 19.532 31.4791 19.826C31.4791 19.937 32.2371 19.783 33.0201 19.511Z" stroke="#256FFF" stroke-linecap="round" stroke-linejoin="round"/>
<path d="M25.2709 18.404C28.1108 18.404 30.4129 16.1018 30.4129 13.262C30.4129 10.4221 28.1108 8.12 25.2709 8.12C22.4311 8.12 20.1289 10.4221 20.1289 13.262C20.1289 16.1018 22.4311 18.404 25.2709 18.404Z" stroke="#256FFF" stroke-linecap="round" stroke-linejoin="round"/>
</svg>
