<svg width="32" height="32" viewBox="0 0 32 32" fill="none" xmlns="http://www.w3.org/2000/svg">
<g clip-path="url(#clip0_1_3411)">
<path fill-rule="evenodd" clip-rule="evenodd" d="M15.7845 7.53846C15.403 7.53846 15.064 7.60517 14.8476 7.70206L14.8454 7.70303L8.79245 10.391C7.99793 10.7415 7.94349 11.0586 7.94349 11.0923C7.94349 11.126 7.99793 11.4431 8.79244 11.7937L8.79415 11.7944L14.8476 14.4825C15.064 14.5794 15.403 14.6462 15.7845 14.6462C16.166 14.6462 16.505 14.5794 16.7214 14.4825L16.7236 14.4816L22.7749 11.7944L22.7766 11.7937C23.5711 11.4431 23.6255 11.126 23.6255 11.0923C23.6255 11.0586 23.5711 10.7415 22.7766 10.391L16.7236 7.70303L16.7214 7.70206C16.505 7.60517 16.166 7.53846 15.7845 7.53846ZM17.349 6.29742C16.8785 6.087 16.3103 6 15.7845 6C15.2588 6 14.6906 6.087 14.22 6.29742C14.2196 6.29759 14.2193 6.29776 14.2189 6.29793L8.17146 8.9834C8.17119 8.98352 8.17173 8.98328 8.17146 8.9834C7.22274 9.40215 6.40503 10.1058 6.40503 11.0923C6.40503 12.0788 7.22186 12.7821 8.17055 13.2008C8.17024 13.2007 8.17085 13.2009 8.17055 13.2008L14.2189 15.8867C14.2193 15.8869 14.2197 15.8871 14.2202 15.8873C14.6907 16.0976 15.2588 16.1846 15.7845 16.1846C16.3102 16.1846 16.8784 16.0976 17.3489 15.8872C17.3493 15.887 17.3497 15.8869 17.3502 15.8867L23.3976 13.2012C23.3973 13.2013 23.3978 13.2011 23.3976 13.2012C24.3463 12.7825 25.164 12.0789 25.164 11.0923C25.164 10.1057 24.3471 9.40246 23.3983 8.98371C23.398 8.98361 23.3985 8.98382 23.3983 8.98371L17.3502 6.29793C17.3498 6.29776 17.3494 6.29759 17.349 6.29742Z" fill="#737373"/>
<path fill-rule="evenodd" clip-rule="evenodd" d="M6.76923 14.5179C7.19407 14.5179 7.53846 14.8623 7.53846 15.2872C7.53846 15.5368 7.63721 15.8573 7.83579 16.1625C8.03437 16.4677 8.28725 16.6877 8.51585 16.7886L8.51774 16.7895L15.4804 19.8863C15.4801 19.8861 15.4806 19.8864 15.4804 19.8863C15.8173 20.035 16.1947 20.0328 16.5145 19.8885L16.5182 19.8869L23.4823 16.7895L23.4842 16.7886C23.7128 16.6877 23.9656 16.4677 24.1642 16.1625C24.3628 15.8573 24.4615 15.5368 24.4615 15.2872C24.4615 14.8623 24.8059 14.5179 25.2308 14.5179C25.6556 14.5179 26 14.8623 26 15.2872C26 15.8991 25.7757 16.5068 25.4537 17.0016C25.132 17.4961 24.6672 17.9477 24.1065 18.1956C24.1062 18.1957 24.1068 18.1955 24.1065 18.1956L17.147 21.291C17.1463 21.2913 17.1456 21.2916 17.145 21.2919C16.4194 21.6184 15.5869 21.6156 14.8581 21.2932L7.89441 18.196C7.89406 18.1958 7.89371 18.1957 7.89336 18.1955C7.33268 17.9476 6.868 17.4961 6.54626 17.0016C6.22432 16.5068 6 15.8991 6 15.2872C6 14.8623 6.3444 14.5179 6.76923 14.5179Z" fill="#737373"/>
<path fill-rule="evenodd" clip-rule="evenodd" d="M6.76923 19.6461C7.19407 19.6461 7.53846 19.9905 7.53846 20.4153C7.53846 21.0623 7.92097 21.6506 8.5185 21.918C8.51831 21.9179 8.51869 21.9181 8.5185 21.918L15.4804 25.0144C15.4801 25.0143 15.4806 25.0145 15.4804 25.0144C15.8173 25.1632 16.1947 25.1609 16.5145 25.0167L16.5182 25.0151L23.4809 21.9182C23.4807 21.9183 23.4811 21.9181 23.4809 21.9182C24.0784 21.6508 24.4615 21.0623 24.4615 20.4153C24.4615 19.9905 24.8059 19.6461 25.2308 19.6461C25.6556 19.6461 26 19.9905 26 20.4153C26 21.6759 25.2546 22.8105 24.1088 23.3227L24.1075 23.3233L17.147 26.4191C17.1463 26.4194 17.1456 26.4197 17.145 26.4201C16.4194 26.7466 15.5869 26.7438 14.8581 26.4214L7.89118 23.3227C6.74545 22.8105 6 21.6759 6 20.4153C6 19.9905 6.3444 19.6461 6.76923 19.6461Z" fill="#737373"/>
</g>
<defs>
<clipPath id="clip0_1_3411">
<rect width="32" height="32" fill="white"/>
</clipPath>
</defs>
</svg>
