<svg width="61" height="60" viewBox="0 0 61 60" fill="none" xmlns="http://www.w3.org/2000/svg">
<g clip-path="url(#clip0_38_531)">
<path d="M29.2935 59.7066C29.2935 59.7066 26.4402 42.7337 22.9185 39.2772C19.3967 35.8207 2.29345 33.2935 2.29345 33.2935C2.29345 33.2935 19.2663 30.4402 22.7228 26.9185C26.1793 23.3968 28.7065 6.29348 28.7065 6.29348C28.7065 6.29348 31.5598 23.2663 35.0815 26.7228C38.6033 30.1794 55.7066 32.7066 55.7066 32.7066C55.7066 32.7066 38.7337 35.5598 35.2772 39.0816C31.8207 42.6033 29.2935 59.7066 29.2935 59.7066Z" fill="white"/>
</g>
<g clip-path="url(#clip1_38_531)">
<path d="M53.087 15.9131C53.087 15.9131 52.2415 10.8841 51.1981 9.85994C50.1546 8.83578 45.0869 8.08699 45.0869 8.08699C45.0869 8.08699 50.1159 7.24157 51.1401 6.19809C52.1642 5.15461 52.913 0.0869568 52.913 0.0869568C52.913 0.0869568 53.7585 5.11596 54.8019 6.14012C55.8454 7.16428 60.9131 7.91307 60.9131 7.91307C60.9131 7.91307 55.8841 8.75849 54.8599 9.80197C53.8358 10.8455 53.087 15.9131 53.087 15.9131Z" fill="white"/>
</g>
<g clip-path="url(#clip2_38_531)">
<path d="M4.04348 23.9566C4.04348 23.9566 3.62077 21.4421 3.09903 20.93C2.57728 20.4179 0.0434497 20.0435 0.0434497 20.0435C0.0434497 20.0435 2.55796 19.6208 3.07004 19.0991C3.58212 18.5773 3.95652 16.0435 3.95652 16.0435C3.95652 16.0435 4.37923 18.558 4.90097 19.0701C5.42272 19.5822 7.95655 19.9566 7.95655 19.9566C7.95655 19.9566 5.44204 20.3793 4.92996 20.901C4.41788 21.4227 4.04348 23.9566 4.04348 23.9566Z" fill="white"/>
</g>
<defs>
<clipPath id="clip0_38_531">
<rect width="38.1838" height="38.1838" fill="white" transform="translate(29 6) rotate(45)"/>
</clipPath>
<clipPath id="clip1_38_531">
<rect width="11.3137" height="11.3137" fill="white" transform="translate(53) rotate(45)"/>
</clipPath>
<clipPath id="clip2_38_531">
<rect width="5.6569" height="5.6569" fill="white" transform="translate(4 16) rotate(45)"/>
</clipPath>
</defs>
</svg>
