<svg width="33" height="33" viewBox="0 0 33 33" fill="none" xmlns="http://www.w3.org/2000/svg">
<circle cx="16.0962" cy="16.0962" r="16.0962" fill="#256FFF"/>
<path d="M13.7595 19.8152V12.2399H16.3191C16.9134 12.2399 17.3992 12.3471 17.7765 12.5617C18.1562 12.7737 18.4373 13.061 18.6198 13.4235C18.8023 13.786 18.8935 14.1904 18.8935 14.6367C18.8935 15.0831 18.8023 15.4887 18.6198 15.8537C18.4398 16.2186 18.1611 16.5096 17.7839 16.7266C17.4066 16.9411 16.9232 17.0484 16.3339 17.0484H14.4993V16.2346H16.3043C16.7112 16.2346 17.0379 16.1644 17.2845 16.0238C17.5311 15.8833 17.7099 15.6934 17.8208 15.4542C17.9343 15.2125 17.991 14.94 17.991 14.6367C17.991 14.3334 17.9343 14.0622 17.8208 13.823C17.7099 13.5838 17.5299 13.3964 17.2808 13.2608C17.0317 13.1227 16.7013 13.0536 16.2895 13.0536H14.6768V19.8152H13.7595Z" fill="white"/>
</svg>
